/* XPM */
static char *gmidiroute___x__[] = {
/* columns rows colors chars-per-pixel */
"32 32 193 2",
"   c #03653D3B0000",
".  c #1B65393A082B",
"X  c #241236310000",
"o  c #25013CCE0EDB",
"O  c #312B2DAD27BF",
"+  c #3C0C365E33A1",
"@  c #476537661A77",
"#  c #48A0344D180E",
"$  c #4688391E1C9B",
"%  c #489C3A381CB9",
"&  c #512B3F211EA9",
"*  c #41F7359629EE",
"=  c #446F3BDB2C5B",
"-  c #43513D6B3343",
";  c #06F0455501F9",
":  c #07CC44350000",
">  c #0672469807A9",
",  c #07C0474808FD",
"<  c #0BA94B5E0C58",
"1  c #128E46CD0645",
"2  c #187E45BF0726",
"3  c #14F04C560000",
"4  c #14324BA40964",
"5  c #1BE74DFE0935",
"6  c #10B850610E32",
"7  c #237351040C36",
"8  c #3544552D0F19",
"9  c #350846381A05",
"0  c #246B633F23C2",
"q  c #2951678A2502",
"w  c #2C436A572B20",
"e  c #391C6B8A2BA8",
"r  c #363C738832BE",
"t  c #385576E03915",
"y  c #58E853C818E4",
"u  c #685E5375195E",
"i  c #4A2162121D44",
"p  c #579D540521A7",
"a  c #649649832547",
"s  c #64724E8A2B6E",
"d  c #6AEF4F4D2BBF",
"f  c #6426520228E2",
"g  c #6ADA56252BE1",
"h  c #70DB52DC26CC",
"j  c #70DB56332913",
"k  c #70DB5A752AFC",
"l  c #6B4556DB32D8",
"z  c #6C91598E3522",
"x  c #70DD5AC8354D",
"c  c #74857EDE26C9",
"v  c #78FA609C373B",
"b  c #3F5C7E603FF6",
"n  c #5C714F224587",
"m  c #5BEA55474B96",
"M  c #4E4F4F2A50C7",
"N  c #4FA650835199",
"B  c #517A525F53E5",
"V  c #5C715770514A",
"C  c #6A956C626FE6",
"Z  c #6A876CBC7056",
"A  c #7CB37D507E3B",
"S  c #A5486EED1C57",
"D  c #8FF172F639D4",
"F  c #976D76E731D2",
"G  c #91CA74E93A00",
"H  c #A5F368382348",
"J  c #A5A472F32E23",
"K  c #A50D745E3408",
"L  c #A5257A61353A",
"P  c #A5067DCA3C2B",
"I  c #E39B7D111F80",
"U  c #CB217E872507",
"Y  c #A5F77D913FDE",
"T  c #57C88CD23D0A",
"R  c #48738770487F",
"E  c #4A3F8B994CF5",
"W  c #573E96A1580A",
"Q  c #7184982C5154",
"!  c #706996855A23",
"~  c #60B19F6D60BD",
"^  c #6476A2E16476",
"/  c #67B6A62267F9",
"(  c #68B5A71768B5",
")  c #7AFCB8CC7AFC",
"_  c #948B87E3336E",
"`  c #A5F7841C3572",
"'  c #A51F82853D81",
"]  c #AE9C810B3819",
"[  c #A08F94393B03",
"{  c #C290832F344D",
"}  c #E4939E803DC1",
"|  c #FFFFA6813C58",
" . c #E705B9AA356C",
".. c #FFFFCD253791",
"X. c #A3C28375410D",
"o. c #AF858B1D422B",
"O. c #B1E78AC24354",
"+. c #A54884A4552A",
"@. c #B274A286475E",
"#. c #B29E8F877E9A",
"$. c #D72C8AB042B3",
"%. c #C6109B8B4673",
"&. c #EE3C97C34659",
"*. c #E3B59E1440D5",
"=. c #EF9E98EF46CE",
"-. c #F3A79C35479E",
";. c #DE78B5CF4F4D",
":. c #E48BA2FE4512",
">. c #E4C1A5C54B8D",
",. c #E437ABC94DFB",
"<. c #E667B5A7429F",
"1. c #E374B4BB4BD6",
"2. c #E8A9B2164DBA",
"3. c #E705B9394E1D",
"4. c #F73BB2B74FBB",
"5. c #FFFFB6994B86",
"6. c #FFFFB9444BC1",
"7. c #E488ACDE52A0",
"8. c #E417B2EA53A6",
"9. c #E705B9AA55C3",
"0. c #E54CB50C5AE5",
"q. c #E535B9AF5B1C",
"w. c #ED1ABEFC5D55",
"e. c #F7B9B74C51C4",
"r. c #FFFFBD3D54A9",
"t. c #F665BE0B59F4",
"y. c #FFFFBD1D5826",
"u. c #E39BB07162BE",
"i. c #E705B9AA603A",
"p. c #E21BB57F6B4A",
"a. c #E493B9DE6E82",
"s. c #FFFFCADA4496",
"d. c #F7FCC5255089",
"f. c #FFFFC316571A",
"g. c #FFFFCDD153F4",
"h. c #F60FC66B5BB0",
"j. c #FFFFC30C5C41",
"k. c #FFFFCD895DC2",
"l. c #FFFFD3B15702",
"z. c #D3C6C59C6DC0",
"x. c #EE99CF8766AC",
"c. c #E771C1336870",
"v. c #FFFFC75C61C9",
"b. c #F22EC9966294",
"n. c #FFFFCBE36381",
"m. c #FFFFCDA1682C",
"M. c #FFFFD2F169D2",
"N. c #FFFFCE5E79F4",
"B. c #FFFFD109795F",
"V. c #7E3E7F138084",
"C. c #7FBF80248133",
"Z. c #82EE838D8484",
"A. c #81C8BFF98216",
"S. c #A9BDAB25ADBA",
"D. c #ADA9AF27B1B9",
"F. c #C4E59D438A24",
"G. c #CC9FBC778F45",
"H. c #D218B10691EA",
"J. c #DA62BE9C95EF",
"K. c #C251B325ABD3",
"L. c #851CC31B8555",
"P. c #8A23C80A8A8E",
"I. c #8C30CB458D45",
"U. c #9B83C9BF8E2D",
"Y. c #920FCFD29213",
"T. c #93D4D1969424",
"R. c #99E2D5B69897",
"E. c #9F82DD009F82",
"W. c #AFD0D0508885",
"Q. c #A174DEFDA19E",
"!. c #A593E320A5D0",
"~. c #AB8DE548A668",
"^. c #AB4DE766AA31",
"/. c #AC41E97CAC5B",
"(. c #B3CEE5D6A537",
"). c #B815E9C6AD43",
"_. c #D4F6D0FD803A",
"`. c #D9ECC6119736",
"'. c #DA8DC3529BDD",
"]. c #C0AFE03E9406",
"[. c #E9ABDA169D82",
"{. c #CC46C2F2B31A",
"}. c #F99DD8E5A651",
"|. c #CBA9E46BABEA",
" X c #EE41EB2FB953",
".X c #FFFFEAFEB7E1",
"XX c #FF24E1C3B9A3",
"oX c #FA8CEA30B9F8",
"OX c #C5B9C618C69D",
"+X c #CA54CAB9CB31",
"@X c #FFFFE712C048",
"#X c #FFFFEB0BC214",
"$X c None",
/* pixels */
"$X$X$X$X$X$X$X$X$X$X$X$X$X$X$X$X$X$X$X$X$X$X$X$X$X$X$X$X$X$X$X$X",
"$X$X$X$X$X$X$X$X$X$X$X$X$X$X$X$X$X$X$X$X$X$X$X$X$X$X$X$X$X$X$X$X",
"$X$X$X$X$X$X$X$X$X$X$X$X$X$X/././././.$X$X$X$X$X$X$X$X$X$X$X$X$X",
"$X$X$X$X$X$X$X$X$X$X$X$X/./.^.Q.E.!././.$X$X$X$X$X$X$X$X$X$X$X$X",
"$X$X$X$X$X$X$X$X$X$X$X/.^.!.( w 0 R Y./././.$X$X$X$X$X$X$X$X$X$X",
"$X$X$X$X$X$X$X$X$X$X$X/.^.( , : : : t R./.^.$X$X$X$X$X$X$X$X$X$X",
"$X$X$X$X$X$X$X$X$X$X/./.!.r 3 X $X$X: L./.!.$X$X$X$X$X$X$X$X$X$X",
"$X$X$X$X$X$X$X$X$X$X/.^.T.q $X$X$X$X$X) !.!.( $X$X$X$X$X$X$X$X$X",
"$X$X$X$X$X$X$X$X$X$X/./.T.q $X$X$X$X$XA.!.Q.~ $X$X$X$X$X$X$X$X$X",
"$X$X$X$X$X$X$X$X$X$X/./.Q.E $X$X$X$X$X(./.Q.t $X$X$X$X$X$X$X$X$X",
"K.H.`.`.'.J.J.'.'.'.|././.U.[.}.XXoX X)./.I.e G.XXXX#X#X@X#X.X{.",
"F.=.d.1.,.:.} :.7.t.z.R././.z.t.h.b.(./.^.E 8 U I *.:.u.>.h.s.v ",
"F.-.o.- m m m m - O.c.! I./.^.(.(.(./.Q.~ 4 . - n m m V - o.s.v ",
"F.-.' V.+XOXOX+XZ.% z 9 0 W L.T.Q././.~ , ; p C.+XOXOX+XV.' s.v ",
"F.-.' M V.A A A M G a.;.T 7 4 4 q P./.P.e y @ M A A A A N ' s.v ",
"F.-.1.` P L J K P 7.N.k.f.[ i 2 5 r Y.!.W.e.:.H S J ' +.' 8.s.v ",
"F.&.g.l.v.r.6.r.n.f.N.k.n.M.X.F 2._ w t Q 8.5.-.d.5.n.B.v.f.s.v ",
"F.&.%.s l g a o.7.7.p.1.;.q.G L r.7.9 5 7 [ { a l d z g s %.s.v ",
"F.-.Y C D.D.Z % g j x k k x # L r.,.f c.7.b.P Z D.S.S.D.Z ' s.v ",
"F.=.+.p m m - o.j.j.B.k.k.M.K L r.8.f 8.>.q.D Z D.S.S.D.Z ' s.v ",
"F.=.d.1.:.,.} e.v.j.N.k.n.n.K L f.w.g k h k u f z l g l f %.s.v ",
"F.&.g.l.f.f.5.r.j.j.N.k.k.n.K L y.n.y.v.y.n...g.m.k.s.f.j.f.s.v ",
"F.=.;.` P K J 7.j.f.N.k.n.M.' L y.v.y.n.y.n...g.m.n.s.f.j.f.s.v ",
"F.-.' N Z.Z.B % j j x j h g p ] f.n.y.v.y.n...g.n.n.s.f.y.f.s.v ",
"F.-.' B Z.Z.B G 7.7.p.;.8.0.:.4.y.v.y.v.y.k...g.n.n.s.y.j.f.s.v ",
"F.-.1.` K L J ,.v.j.N.k.n.v.r.r.y.v.y.n.y.n...g.n.n.s.f.y.f.s.v ",
"F.&.g.g.r.f.5.r.j.j.N.k.k.n.r.r.y.v.y.v.y.n...g.m.n.s.f.j.f.s.v ",
"#.$.1.3.>.2.:.,.0.8.a.9.q.0.>.,.7.0.7.0.7.0. .9.i.q. .8.7.7.<.x ",
"+ * = = = = = = = = - = = = = = = = = - = = p - = = = = - = = O ",
"$X$X$X$X$X$X$X$X$X$X$X$X$X$X$X$X$X$X$X$X$X$X$X$X$X$X$X$X$X$X$X$X",
"$X$X$X$X$X$X$X$X$X$X$X$X$X$X$X$X$X$X$X$X$X$X$X$X$X$X$X$X$X$X$X$X",
"$X$X$X$X$X$X$X$X$X$X$X$X$X$X$X$X$X$X$X$X$X$X$X$X$X$X$X$X$X$X$X$X"
};
