/* XPM */
static char *filequit_xpm[] = {
/* columns rows colors chars-per-pixel */
"48 48 256 2 ",
"   c #010101",
".  c #0B0B0B",
"X  c #050B0E",
"o  c #061117",
"O  c #08141B",
"+  c #121212",
"@  c #1A1A1A",
"#  c #10171B",
"$  c #060D11",
"%  c #071A24",
"&  c #151C20",
"*  c #0E232E",
"=  c #18252C",
"-  c #012335",
";  c #172B37",
":  c #252525",
">  c #2C2C2C",
",  c #24343C",
"<  c #2C3438",
"1  c #333333",
"2  c #3C3C3C",
"3  c #012C42",
"4  c #023856",
"5  c #133D54",
"6  c #163F55",
"7  c #103549",
"8  c #253942",
"9  c #2A3C45",
"0  c #184259",
"q  c #374549",
"w  c #2E4C5B",
"e  c #154660",
"r  c #004E78",
"t  c #024D75",
"y  c #055179",
"u  c #0C547A",
"i  c #12567B",
"p  c #1C5B7D",
"a  c #17597C",
"s  c #024468",
"d  c #3E5863",
"f  c #235F7E",
"g  c #285B76",
"h  c #24526A",
"j  c #2A617F",
"k  c #27607E",
"l  c #434343",
"z  c #4A4A4A",
"x  c #42555F",
"c  c #505050",
"v  c #405964",
"b  c #55666E",
"n  c #4C6874",
"m  c #576971",
"M  c #586972",
"N  c #566A74",
"B  c #5E747E",
"V  c #67767C",
"C  c #68767C",
"Z  c #647277",
"A  c #BB0606",
"S  c #BE0B0B",
"D  c #B70101",
"F  c #BC1212",
"G  c #C30D0D",
"H  c #CC1414",
"J  c #C41818",
"K  c #D41B1B",
"L  c #D81F1F",
"P  c #DC2222",
"I  c #D62828",
"U  c #CC3030",
"Y  c #E12727",
"T  c #E42A2A",
"R  c #E92E2E",
"E  c #EC3232",
"W  c #F43A3A",
"Q  c #F13535",
"!  c #CD4848",
"~  c #D74B4B",
"^  c #F64646",
"/  c #EA5E5E",
"(  c #E45858",
")  c #EE6161",
"_  c #E66464",
"`  c #F06363",
"'  c #035784",
"]  c #1B6489",
"[  c #036295",
"{  c #0C6696",
"}  c #01679D",
"|  c #0C6A9C",
" . c #07689B",
".. c #146A97",
"X. c #1A6A94",
"o. c #146C9A",
"O. c #186C99",
"+. c #106796",
"@. c #1C709C",
"#. c #2D6886",
"$. c #2A6787",
"%. c #356984",
"&. c #3B718E",
"*. c #216F99",
"=. c #24729B",
"-. c #2C759C",
";. c #2F789F",
":. c #32779B",
">. c #34799D",
",. c #036CA3",
"<. c #0A6FA4",
"1. c #026FA9",
"2. c #126FA0",
"3. c #0472AD",
"4. c #0B74AC",
"5. c #0E71A5",
"6. c #1573A5",
"7. c #1B74A3",
"8. c #1276AB",
"9. c #1C7AAC",
"0. c #1978AA",
"q. c #0376B3",
"w. c #0C79B3",
"e. c #057DBC",
"r. c #0A7BB6",
"t. c #147CB3",
"y. c #1B7EB3",
"u. c #2B7AA4",
"i. c #237CAB",
"p. c #2B7EAA",
"a. c #2477A3",
"s. c #347DA4",
"d. c #5D7882",
"f. c #667B85",
"g. c #1C81B6",
"h. c #1B86BD",
"j. c #1482BC",
"k. c #0980BF",
"l. c #3881A7",
"z. c #3381AC",
"x. c #3A85AC",
"c. c #3780A6",
"v. c #2382B5",
"b. c #2C84B3",
"n. c #2389BF",
"m. c #2887B9",
"M. c #3486B1",
"N. c #3389B7",
"B. c #3C8AB3",
"V. c #348CBA",
"C. c #3B8DBA",
"Z. c #3E91BD",
"A. c #2780AF",
"S. c #6B828B",
"D. c #768C94",
"F. c #7F939B",
"G. c #408FB9",
"H. c #4192BD",
"J. c #0482C4",
"K. c #0485C9",
"L. c #0488CE",
"P. c #1C89C3",
"I. c #1C8ECA",
"U. c #1687C2",
"Y. c #048DD5",
"T. c #1D94D3",
"R. c #1090D5",
"E. c #2A8DC2",
"W. c #238DC5",
"Q. c #2492CD",
"!. c #2B95CC",
"~. c #2E91C5",
"^. c #3492C4",
"/. c #3C94C3",
"(. c #3C9ACC",
"). c #3697CB",
"_. c #2498D5",
"`. c #2C9AD4",
"'. c #249CDB",
"]. c #2C9EDB",
"[. c #2196D3",
"{. c #339CD3",
"}. c #3C9ED3",
"|. c #308FC1",
" X c #3CA3DA",
".X c #34A1DB",
"XX c #2BA1DF",
"oX c #2DA4E3",
"OX c #2AA6E8",
"+X c #2CA9EB",
"@X c #26A1E2",
"#X c #34A6E2",
"$X c #3CAAE4",
"%X c #32ABEB",
"&X c #39ABE8",
"*X c #39B0EF",
"=X c #2EADF0",
"-X c #2EB2F7",
";X c #34B2F4",
":X c #3BB4F3",
">X c #34B4F9",
",X c #3AB7F9",
"<X c #3EB9FA",
"1X c #31AFF1",
"2X c #449CCB",
"3X c #4398C4",
"4X c #44A2D3",
"5X c #43A6DA",
"6X c #45A9DE",
"7X c #4BAADC",
"8X c #49A4D3",
"9X c #46A0CF",
"0X c #43ADE5",
"qX c #4BAEE2",
"wX c #4EB1E5",
"eX c #44B1EB",
"rX c #4BB4EB",
"tX c #51B7ED",
"yX c #42B5F2",
"uX c #4BBAF5",
"iX c #43BBFB",
"pX c #4ABEFC",
"aX c #47B7F3",
"sX c #51BDF6",
"dX c #4DC0FD",
"fX c #52C2FE",
"gX c #82959D",
"hX c #8C9DA3",
"jX c #8FA0A7",
"kX c #98A7AD",
"lX c #9BABB1",
"zX c #A7B4BA",
"xX c #A9B3B9",
"cX c #ECBFBF",
"vX c #FBBDBD",
"bX c #F7B9B9",
"nX c #B1BCC1",
"mX c #BBC5C9",
"MX c #BFC8CC",
"NX c #C6CED1",
"BX c #CAD2D5",
"VX c #CFD5D8",
"CX c #D1D7DA",
"ZX c #D4DBDD",
"AX c #C3CBCF",
"SX c #EEC1C1",
"DX c #FFC9C9",
"FX c #DADFE2",
"GX c #DDE2E4",
"HX c #EEF1F2",
"JX c #F3F5F5",
"KX c #FDF4F4",
"LX c #F7F8F8",
"PX c #FBFBFB",
"IX c #EDEFEF",
"UX c None",
/* pixels */
"UXUXUXUXUXUXUXUXUXUXUXUXUXUXUXUXUXUXUXUXUXUXUXUXUXUXUXUXUXUXUXUXUXUXUXUXUXUXUXUXUXUXUXUXUXUXUXUX",
"UXUXUXUXUXUXUXUXUXUXUXUXl l z z c c c z c c c z z z z z z z z l l l l l l l 2 l l 2 2 2 z UXUXUX",
"UXUXUXUXUXUXUXUXUXUXUXUX:           . . + + @ @ : : : : > > 1 1 1 2 1 1 1 1 1 > > > : : 2 UXUXUX",
"UXUXUXUXUXUXUXUXUXUXUXUX:                                             .   . . + + + > > 2 UXUXUX",
"UXUXUXUXUXUXUXUXUXUXUXUX:   $ C.l.:.#.g h 0 7 ; = # .       .                       : : 2 UXUXUX",
"UXUXUXUXUXUXUXUXUXUXUXUX:   o fXfXfXfXfXtXtXtXwX7X7X7X2XH.x.:.&.j h w 6 7 ; ; &     : : 2 UXUXUX",
"UXUXUXUXUXUXUXUXUXUXUXUX:   o dXfXfXfXsXsXtXtXwX7X7X8X8X2X3XH.C.B.x.l.>.>.>.>.j     : : 2 UXUXUX",
"UXUXUXUXUXUXUXUXUXUXUXUX>   o dXfXdXpXuXtXtXwXwX7X7X8X9X2X3XH.G.G.x.l.s.>.>.>.j     @ : 2 UXUXUX",
"UXUXUXUXUXUXUXUXUXUXUXUX>   o dXpXpXpXuXuXrXrXqX6X5X4X2X2X3XZ.B.B.x.c.s.>.>.>.j     : : 2 UXUXUX",
"UXUXUXUXUXUXUXUXUXUXUXUX:   o pXiXpXpXaXaXrX0X0X7X5X4X4X(./.Z.C.M.x.s.>.:.:.:.f     @ : 2 UXUXUX",
"UXUXUXUXUXUXUXUXUXUXUXUX:   o iXiXiXiXaXaXeX0X0X6X5X X2X(./.Z.C.M.x.s.>.:.:.:.$.    : : 2 UXUXUX",
"UXUXUXUXUXUXUXUXUXUXUXUX:   o iXiXiXiXyXyXeX$X0X X5X(.(././.C.N.N.z.s.u.:.:.-.k     : : 2 UXUXUX",
"UXUXUXUXUXUXUXUXUXUXUXUX:   o <XiX<XiX<XyX*X0X0X X X}.}.(./.V.N.M.z.s.-.-.-.-.k     : : 2 UXUXUX",
"UXUXUXUXUXUXUXUXUXUXUXUX:   o <X,X<X<X:XeX*X$X$X X X}.(.^./.V.N.z.p.u.;.-.-.-.f     : : 2 UXUXUX",
"UXUXUXUXUXUXUXUXUXUXUXUX:   O ,X,X,X:X:X*X&X$X$X X.X{.).^.^.V.N.z.b.u.-.-.-.-.p     @ : 2 UXUXUX",
"UXUXUXUXUXUXUXUXUXUXUXUX:   o ,X,X,X:X;X:X%X#X#X X{.`.).^.^.V.b.A.p.u.-.=.-.-.f     : : 2 UXUXUX",
"UXUXUXUXUXUXUXUXUXUXUXUX:   o >X>X>X,X;X1X&X#X.X.X{.).).~.^.m.b.b.p.a.-.=.=.-.p     : : 2 UXUXUX",
"UXUXUXUXUXUXUXUXUXUXUXUX:   o -X-X-X;X=X%X%X%X#X.X{.{.!.~.E.V.b.A.p.a.=.=.=.=.p     : : 2 UXUXUX",
"UXUXUXUXUXUXUXUXUXUXUXUX:   o -X-X-X-X=X%X%XoX.XXX`.`.!.~.V.m.m.A.p.a.=.*.=.=.p     @ : 2 UXUXUX",
"UXUXUXUXUXUXUXUXUXUXUXUX:   o +X&.&.+X=X+X+XoXoX].`.`.~.W.E.m.v.v.i.a.=.*.*.*.p     : : 2 UXUXUX",
"UXUXUXUXUXUXUXUXUXUXUXUX:   = n nXzXj &X+X+XoXXX].`._.~.W.E.m.v.i.i.a.X.0 5 ] a     : : 2 UXUXUX",
"UXUXUXUXUXUXUXUXUXUXUXUX:   8 VXVXVXxX%.oXOX@X@X'._.Q.Q.W.E.v.v.y.a.7.0 * = 5 a     : : 2 UXUXUX",
"UXUXUXUXUXUXUXUXUXUXUXUX:   9 PXGXVXVXlX%.@X@X'._._.Q.Q.W.n.v.g.i.9.7.0 * * 5 a     : : 2 UXUXUX",
"UXUXUXUXUXUXUXUXUXUXUXUX:   8 PXPXGXBXNXkX%.'.'._._.Q.W.W.n.g.v.9.0.7...0 5 ] a     @ : 2 UXUXUX",
"UXUXUXUXUXUXUXUXUXUXUXUX>   8 PXDXPXCXMXmXhX%.T._.[.Q.I.P.n.y.y.9.0.7.O...O.O.a     : : 2 UXUXUX",
"UXUXUXUXUXq b N b b M M M M M PX^ DXPXNXnXxXgX#.T.T.I.I.P.h.g.y.9.0.7...O.....i     : : 2 UXUXUX",
"UXUXUXUXv xXVXVXVXVXBXNXAXmXmXPX^ W vXPXMXzXzXD.#.[.I.I.P.h.g.y.9.6.6.o.......i     : : 2 UXUXUX",
"UXUXUXq HXJXJXJXJXHXHXHXHXHXHXPX^ W W vXPXnXlXkXS.#.I.I.U.U.t.t.8.6.2.........i     : : 2 UXUXUX",
"UXUXUX9 PX) / / ( / / / ) ) ) ) E E Q Q SXPXzXhXhXf.$.I.U.h.t.t.8.6.6...+.....i     : : 2 UXUXUX",
"UXUXUX9 PXI L L Y Y Y Y Y Y R R R R R E Q vXLXlXF.F.d.$.j.j.t.t.4.6.o.| +.+.{ u     : : 2 UXUXUX",
"UXUXUX9 LXI L L L L L P Y Y Y Y T T R R R E vXJXjXD.D.N $.j.t.w.8.6.| +.+.+.{ u     @ : 2 UXUXUX",
"UXUXUX8 PXI H K K K L L L L P P Y Y Y T T T R bXHXhXS.f.n @.w.8.4.5.<. .{ { { u     : : 2 UXUXUX",
"UXUXUX8 PXI H H H K K L K K L L L P Y Y Y Y Y R bXJXD.d.d 0.w.w.4.<.| { { { [ u     : : 2 UXUXUX",
"UXUXUX, PXJ G H H H H H K K K K L L L L P Y P Y / PXmXd 6.j.r.4.4.<. . .{ { { t     : : 2 UXUXUX",
"UXUXUX, LXJ G G G H H H H H K H K K L K L L P ( KXBXd 6.J.r.r.q.3.<. . .{ [ { y     : : 2 UXUXUX",
"UXUXUX, LXJ G S G G G G H H H H K H H K K K ( KXVXv 6.J.e.r.q.3.3.<. .[ [ [ [ r     @ : 2 UXUXUX",
"UXUXUX, LXF A A A A G G G G G G H H H H K ~ KXCXv 6.K.J.e.e.q.3.<.,.} [ [ [ [ r     : : 2 UXUXUX",
"UXUXUX, LXF D D A A A S S G G G G G G H ~ KXVXv 8.L.K.J.e.e.q.3.1.,.,.[ [ [ [ t     : : 2 UXUXUX",
"UXUXUX, LXSXcXcXcXcXSXSXSXSXSXSXJ G G ! KXCXv 8.Y.L.K.J.e.e.q.q.1.,.} [ [ [ [ t     : : 2 UXUXUX",
"UXUXUXUXZ C C V C Z C C C C C LXJ A ! KXCXd t.Y.Y.K.K.J.e.e.q.3.1.,.} [ [ [ [ t     : : 2 UXUXUX",
"UXUXUXUXUXUXUXUXUXUXUXUX:   ; LXF U PXZXd 8.Y.Y.Y.L.K.J.q.<.[ ' t s 4 3 3 - % %     : : 2 UXUXUX",
"UXUXUXUXUXUXUXUXUXUXUXUX:   ; LX! KXZXd 0 4 3 - % o X .           X                 : : 2 UXUXUX",
"UXUXUXUXUXUXUXUXUXUXUXUX:   : LXKXFXx #                               . X . . + + @ : : 2 UXUXUX",
"UXUXUXUXUXUXUXUXUXUXUXUX:   = LXZXv @ . + + @ @ = : : : > 1 1 1 1 1 1 1 1 1 1 > : > : : 2 UXUXUX",
"UXUXUXUXUXUXUXUXUXUXUXUXl 2 < VXq q z z z z z z z z z l z l z l z z l l l l l l 2 l 2 l z UXUXUX",
"UXUXUXUXUXUXUXUXUXUXUXUXUXUX, q < UXUXUXUXUXUXUXUXUXUXUXUXUXUXUXUXUXUXUXUXUXUXUXUXUXUXUXUXUXUXUX",
"UXUXUXUXUXUXUXUXUXUXUXUXUXUXUXUXUXUXUXUXUXUXUXUXUXUXUXUXUXUXUXUXUXUXUXUXUXUXUXUXUXUXUXUXUXUXUXUX",
"UXUXUXUXUXUXUXUXUXUXUXUXUXUXUXUXUXUXUXUXUXUXUXUXUXUXUXUXUXUXUXUXUXUXUXUXUXUXUXUXUXUXUXUXUXUXUXUX"
};
