/* XPM */
static char * mapadd_xpm[] = {
"48 48 780 2",
"  	c None",
". 	c #575757",
"+ 	c #424242",
"@ 	c #414141",
"# 	c #383838",
"$ 	c #3C3C3C",
"% 	c #3A3A3A",
"& 	c #404040",
"* 	c #535353",
"= 	c #272727",
"- 	c #3B3B3B",
"; 	c #393939",
"> 	c #2D2D2D",
", 	c #313131",
"' 	c #303130",
") 	c #2F302F",
"! 	c #2F302E",
"~ 	c #2E2F2E",
"{ 	c #2E2E2D",
"] 	c #2D2D2E",
"^ 	c #2E2E2E",
"/ 	c #373737",
"( 	c #282828",
"_ 	c #3D3D3D",
": 	c #232323",
"< 	c #303030",
"[ 	c #2F2F2F",
"} 	c #373B37",
"| 	c #3C3181",
"1 	c #413385",
"2 	c #3E3383",
"3 	c #3D3282",
"4 	c #3F3282",
"5 	c #3C3282",
"6 	c #3A3181",
"7 	c #383181",
"8 	c #3D3383",
"9 	c #3B3383",
"0 	c #3B3482",
"a 	c #3C3583",
"b 	c #3A3381",
"c 	c #302C4E",
"d 	c #363636",
"e 	c #252525",
"f 	c #333333",
"g 	c #E0E0E0",
"h 	c #D1D1D1",
"i 	c #ECECEC",
"j 	c #B7B7B7",
"k 	c #646464",
"l 	c #E4E4E4",
"m 	c #202020",
"n 	c #3E3E3E",
"o 	c #3D433B",
"p 	c #5039C5",
"q 	c #5A44E0",
"r 	c #5846E0",
"s 	c #5D48DE",
"t 	c #5C4AE0",
"u 	c #5A4CE2",
"v 	c #5D4BE1",
"w 	c #594BE1",
"x 	c #5D4FE3",
"y 	c #5E50E2",
"z 	c #5F51E3",
"A 	c #6153E5",
"B 	c #6056E6",
"C 	c #6156E6",
"D 	c #5E57E7",
"E 	c #5C53DD",
"F 	c #352F63",
"G 	c #2D2C2D",
"H 	c #2C2C2C",
"I 	c #353535",
"J 	c #262626",
"K 	c #565656",
"L 	c #BBBBBB",
"M 	c #B3B3B3",
"N 	c #979797",
"O 	c #1B1B1B",
"P 	c #444444",
"Q 	c #434942",
"R 	c #553FC5",
"S 	c #5B49E1",
"T 	c #5E4CE2",
"U 	c #5B4DE3",
"V 	c #5C4EE2",
"W 	c #5C4EE4",
"X 	c #5F4EE2",
"Y 	c #5F4DE3",
"Z 	c #604EE4",
"` 	c #614FE3",
" .	c #6150E4",
"..	c #594BDB",
"+.	c #342E62",
"@.	c #343434",
"#.	c #A2A2A2",
"$.	c #B6B6B6",
"%.	c #999999",
"&.	c #E5E5E5",
"*.	c #4B4B4B",
"=.	c #494949",
"-.	c #484E47",
";.	c #5B42C6",
">.	c #5E44E0",
",.	c #5A48E0",
"'.	c #5C46E0",
").	c #5947E1",
"!.	c #5D47E1",
"~.	c #5B45E1",
"{.	c #5742D8",
"].	c #352D63",
"^.	c #242424",
"/.	c #323232",
"(.	c #2B2B2B",
"_.	c #545454",
":.	c #A1A1A1",
"<.	c #B4B4B4",
"[.	c #C4C4C4",
"}.	c #D3D3D3",
"|.	c #8F8F8F",
"1.	c #E2E2E2",
"2.	c #1C1C1C",
"3.	c #515151",
"4.	c #4E4E4E",
"5.	c #4E544D",
"6.	c #5F46C8",
"7.	c #5E48E2",
"8.	c #5C4AE2",
"9.	c #5C46E2",
"0.	c #5B40E0",
"a.	c #583DDF",
"b.	c #573CE0",
"c.	c #5339D7",
"d.	c #352C62",
"e.	c #2D2C2E",
"f.	c #434343",
"g.	c #3F3F3F",
"h.	c #454545",
"i.	c #585858",
"j.	c #545A53",
"k.	c #634CC6",
"l.	c #694BD9",
"m.	c #6247D7",
"n.	c #6145D7",
"o.	c #5D45D7",
"p.	c #5C43D7",
"q.	c #5D41D5",
"r.	c #5B40D2",
"s.	c #5B3ED6",
"t.	c #593DD3",
"u.	c #5A3DD5",
"v.	c #593CD6",
"w.	c #573AD4",
"x.	c #5037D3",
"y.	c #5437D3",
"z.	c #5234D4",
"A.	c #5031D3",
"B.	c #4E2FD3",
"C.	c #4B2DCD",
"D.	c #322A62",
"E.	c #212121",
"F.	c #5D5D5D",
"G.	c #5A5A5A",
"H.	c #595B59",
"I.	c #585476",
"J.	c #585373",
"K.	c #575272",
"L.	c #545070",
"M.	c #514D6F",
"N.	c #514C6C",
"O.	c #4F4B6B",
"P.	c #4B4769",
"Q.	c #4B4567",
"R.	c #464365",
"S.	c #474163",
"T.	c #433E62",
"U.	c #403B5F",
"V.	c #3E395D",
"W.	c #3C375B",
"X.	c #383359",
"Y.	c #373258",
"Z.	c #342F55",
"`.	c #312C54",
" +	c #302A52",
".+	c #2F2951",
"++	c #2C2B3F",
"@+	c #636363",
"#+	c #5F5F5F",
"$+	c #62635C",
"%+	c #899749",
"&+	c #676054",
"*+	c #A7772E",
"=+	c #5A5D57",
"-+	c #7F8B46",
";+	c #525553",
">+	c #A14C3E",
",+	c #554B4C",
"'+	c #4B494C",
")+	c #484649",
"!+	c #464447",
"~+	c #444144",
"{+	c #413E41",
"]+	c #3E3C3F",
"^+	c #3C3A3D",
"/+	c #39363A",
"(+	c #383538",
"_+	c #353235",
":+	c #323033",
"<+	c #302D30",
"[+	c #2D2A2E",
"}+	c #2A2A2A",
"|+	c #6D6D6D",
"1+	c #686868",
"2+	c #676764",
"3+	c #7B8556",
"4+	c #625E5E",
"5+	c #8E7043",
"6+	c #5D615C",
"7+	c #737D50",
"8+	c #565A57",
"9+	c #885348",
"0+	c #555151",
"a+	c #4E4E4F",
"b+	c #4A494D",
"c+	c #44424A",
"d+	c #434147",
"e+	c #434244",
"f+	c #373637",
"g+	c #323134",
"h+	c #2C2B32",
"i+	c #2B2930",
"j+	c #2C2B2E",
"k+	c #1F1F1F",
"l+	c #292929",
"m+	c #3F3F40",
"n+	c #50553C",
"o+	c #788835",
"p+	c #8BA231",
"q+	c #697635",
"r+	c #434638",
"s+	c #373738",
"t+	c #343435",
"u+	c #3D4032",
"v+	c #5F6D2C",
"w+	c #809625",
"x+	c #6B7B27",
"y+	c #40452C",
"z+	c #2C2C2D",
"A+	c #2B2D28",
"B+	c #485222",
"C+	c #70851B",
"D+	c #6C801A",
"E+	c #404920",
"F+	c #252623",
"G+	c #222222",
"H+	c #414042",
"I+	c #575C42",
"J+	c #81913D",
"K+	c #96AC3A",
"L+	c #74823F",
"M+	c #505344",
"N+	c #363537",
"O+	c #363637",
"P+	c #505345",
"Q+	c #75823F",
"R+	c #96AD3B",
"S+	c #82933E",
"T+	c #585E43",
"U+	c #424243",
"V+	c #4C4E48",
"W+	c #697342",
"X+	c #92A83C",
"Y+	c #8FA43D",
"Z+	c #646D43",
"`+	c #4B4B49",
" @	c #1E1E1E",
".@	c #3B3A3C",
"+@	c #38373C",
"@@	c #37363D",
"#@	c #39383C",
"$@	c #3B3B3C",
"%@	c #3A393C",
"&@	c #37363C",
"*@	c #3A3A3C",
"=@	c #1D1D1D",
"-@	c #0A0A0A",
";@	c #191919",
">@	c #0D0D0D",
",@	c #0B0B0B",
"'@	c #0E0E0E",
")@	c #0C0C0C",
"!@	c #141414",
"~@	c #1A1A1A",
"{@	c #181818",
"]@	c #131313",
"^@	c #151515",
"/@	c #111111",
"(@	c #020202",
"_@	c #000000",
":@	c #040404",
"<@	c #040505",
"[@	c #020302",
"}@	c #050505",
"|@	c #080909",
"1@	c #101010",
"2@	c #545052",
"3@	c #D8D8D8",
"4@	c #CCCBCC",
"5@	c #D5D4D5",
"6@	c #4D4949",
"7@	c #2B2728",
"8@	c #BEBDBE",
"9@	c #D8D7D7",
"0@	c #A19F9F",
"a@	c #282425",
"b@	c #737171",
"c@	c #DFDFDF",
"d@	c #D9D8D8",
"e@	c #D6D5D6",
"f@	c #979595",
"g@	c #DEDDDD",
"h@	c #DDDCDD",
"i@	c #A3A1A2",
"j@	c #282426",
"k@	c #747172",
"l@	c #D4D3D4",
"m@	c #747173",
"n@	c #1C1819",
"o@	c #AFADAE",
"p@	c #DEDDDE",
"q@	c #BDBBBC",
"r@	c #3F3C3D",
"s@	c #373234",
"t@	c #D2D1D2",
"u@	c #A4A2A3",
"v@	c #CECDCE",
"w@	c #5E5C5C",
"x@	c #1D1819",
"y@	c #D1D0D0",
"z@	c #DAD9D9",
"A@	c #DFDEDE",
"B@	c #838081",
"C@	c #595758",
"D@	c #FFFFFF",
"E@	c #2C2729",
"F@	c #95A972",
"G@	c #4B6925",
"H@	c #4E751B",
"I@	c #4F6925",
"J@	c #9FB97E",
"K@	c #939091",
"L@	c #0B0707",
"M@	c #FAF9F9",
"N@	c #FAFAFA",
"O@	c #646162",
"P@	c #A5A3A4",
"Q@	c #C2C1C2",
"R@	c #231E20",
"S@	c #201D1D",
"T@	c #E5E4E4",
"U@	c #FDFDFD",
"V@	c #EDEDED",
"W@	c #444041",
"X@	c #CECDCD",
"Y@	c #999697",
"Z@	c #080808",
"`@	c #525251",
" #	c #2A2425",
".#	c #63704F",
"+#	c #105600",
"@#	c #42B000",
"##	c #43B200",
"$#	c #135800",
"%#	c #6B6E62",
"&#	c #949192",
"*#	c #030000",
"=#	c #5D595A",
"-#	c #F7F6F7",
";#	c #F7F7F7",
">#	c #615D5D",
",#	c #A7A4A5",
"'#	c #C3C2C2",
")#	c #1A1315",
"!#	c #211D1E",
"~#	c #E3E2E3",
"{#	c #FBFBFB",
"]#	c #B8B6B7",
"^#	c #F8F8F8",
"/#	c #EBEAEA",
"(#	c #403B3C",
"_#	c #CFCECF",
":#	c #8C898A",
"<#	c #070707",
"[#	c #515050",
"}#	c #FEFEFE",
"|#	c #312D2D",
"1#	c #040000",
"2#	c #207000",
"3#	c #66F200",
"4#	c #72FE00",
"5#	c #247600",
"6#	c #61685C",
"7#	c #979597",
"8#	c #080203",
"9#	c #605D5E",
"0#	c #666163",
"a#	c #020000",
"b#	c #A8A6A7",
"c#	c #C5C4C5",
"d#	c #1F191A",
"e#	c #252222",
"f#	c #E4E3E4",
"g#	c #B7B5B5",
"h#	c #454142",
"i#	c #010000",
"j#	c #D0CFCF",
"k#	c #898586",
"l#	c #514F50",
"m#	c #474244",
"n#	c #171112",
"o#	c #64714F",
"p#	c #67F400",
"q#	c #67665B",
"r#	c #A4A1A1",
"s#	c #1C1617",
"t#	c #6C6869",
"u#	c #757172",
"v#	c #171213",
"w#	c #ADABAB",
"x#	c #CDCBCB",
"y#	c #322C2D",
"z#	c #342F30",
"A#	c #EFEEEF",
"B#	c #575354",
"C#	c #110C0D",
"D#	c #D2D1D1",
"E#	c #898686",
"F#	c #020303",
"G#	c #4F4F4F",
"H#	c #595556",
"I#	c #292425",
"J#	c #647150",
"K#	c #2F2A2B",
"L#	c #767373",
"M#	c #F9F9F9",
"N#	c #827F80",
"O#	c #2C2728",
"P#	c #B0AEAE",
"Q#	c #D2D0D1",
"R#	c #423E3F",
"S#	c #464242",
"T#	c #E6E6E6",
"U#	c #B6B5B5",
"V#	c #F7F8F8",
"W#	c #F1F1F1",
"X#	c #676465",
"Y#	c #252021",
"Z#	c #D3D1D2",
"`#	c #878485",
" $	c #010101",
".$	c #030303",
"+$	c #4F4E4E",
"@$	c #6A6768",
"#$	c #3D393A",
"$$	c #647250",
"%$	c #B3B1B1",
"&$	c #444141",
"*$	c #828080",
"=$	c #8F8D8E",
"-$	c #B4B3B3",
";$	c #D4D4D4",
">$	c #555252",
",$	c #E7E7E8",
"'$	c #B6B4B5",
")$	c #F8F7F7",
"!$	c #F3F2F2",
"~$	c #777475",
"{$	c #3B3737",
"]$	c #868384",
"^$	c #4F4D4D",
"/$	c #FDFDFF",
"($	c #3B3738",
"_$	c #B0AFAF",
":$	c #423F40",
"<$	c #817E7F",
"[$	c #8D8A8B",
"}$	c #403C3D",
"|$	c #B4B2B3",
"1$	c #D3D2D3",
"2$	c #535051",
"3$	c #565354",
"4$	c #E7E7E7",
"5$	c #FDFFFF",
"6$	c #B5B4B5",
"7$	c #F2F2F2",
"8$	c #383536",
"9$	c #514D4E",
"0$	c #FBFBFC",
"a$	c #616559",
"b$	c #A7A5A5",
"c$	c #747071",
"d$	c #F6F6F6",
"e$	c #7D7B7B",
"f$	c #282324",
"g$	c #AFADAD",
"h$	c #CECCCD",
"i$	c #3E3A3C",
"j$	c #423E3E",
"k$	c #FCFCFC",
"l$	c #B5B3B4",
"m$	c #FAFBFC",
"n$	c #EFEFEF",
"o$	c #625F5F",
"p$	c #201C1D",
"q$	c #504C4D",
"r$	c #3F3B3C",
"s$	c #576050",
"t$	c #9C999A",
"u$	c #161212",
"v$	c #676565",
"w$	c #F4F4F5",
"x$	c #6D6A6A",
"y$	c #110D0E",
"z$	c #AAA9A9",
"A$	c #C7C5C6",
"B$	c #2B2828",
"C$	c #2F2B2A",
"D$	c #FBFAFB",
"E$	c #B5B3B3",
"F$	c #FAF9FA",
"G$	c #EBECEB",
"H$	c #504D4D",
"I$	c #0B0808",
"J$	c #FEFEFF",
"K$	c #F7F7F8",
"L$	c #272324",
"M$	c #4E504C",
"N$	c #8D8B8C",
"O$	c #5C595A",
"P$	c #F4F3F4",
"Q$	c #F3F3F3",
"R$	c #5C5859",
"S$	c #A5A2A4",
"T$	c #BDBCBD",
"U$	c #161112",
"V$	c #201D1E",
"W$	c #F8FAF9",
"X$	c #F5F5F6",
"Y$	c #E8E7E8",
"Z$	c #3C3839",
"`$	c #CDCCCD",
" %	c #FCFDFD",
".%	c #878484",
"+%	c #5A5657",
"@%	c #F5F5F5",
"#%	c #150F10",
"$%	c #333F23",
"%%	c #207200",
"&%	c #101309",
"*%	c #FDFEFE",
"=%	c #807E7E",
"-%	c #585455",
";%	c #4D4B4C",
">%	c #A29FA0",
",%	c #0A0708",
"'%	c #1A1818",
")%	c #F1F1F2",
"!%	c #2F2C2C",
"~%	c #CBCACA",
"{%	c #FAFAFB",
"]%	c #888586",
"^%	c #0F4E00",
"/%	c #1B6A00",
"(%	c #1E6C00",
"_%	c #3CA000",
":%	c #4EC400",
"<%	c #2C8600",
"[%	c #2D8A00",
"}%	c #0F5200",
"|%	c #383C2E",
"1%	c #9F9C9D",
"2%	c #AAA8A9",
"3%	c #050404",
"4%	c #171515",
"5%	c #DBDBDB",
"6%	c #F2F2F3",
"7%	c #B4B2B2",
"8%	c #F0F0F0",
"9%	c #F4F4F4",
"0%	c #E0E0E1",
"a%	c #252223",
"b%	c #C8C7C7",
"c%	c #F8F9F9",
"d%	c #FEFFFF",
"e%	c #8A8888",
"f%	c #5CDA00",
"g%	c #359600",
"h%	c #2A3323",
"i%	c #C3C2C3",
"j%	c #FCFCFD",
"k%	c #C0BFC0",
"l%	c #343131",
"m%	c #413F3F",
"n%	c #E9E9EA",
"o%	c #F2F3F3",
"p%	c #F0F0F1",
"q%	c #EEEEEF",
"r%	c #F1F2F2",
"s%	c #4B4949",
"t%	c #262424",
"u%	c #F3F4F4",
"v%	c #FBFCFD",
"w%	c #8B8788",
"x%	c #61E400",
"y%	c #70FA00",
"z%	c #6FF800",
"A%	c #339000",
"B%	c #272921",
"C%	c #F9F9FA",
"D%	c #EEEFEF",
"E%	c #C6C5C5",
"F%	c #DFDFE0",
"G%	c #EFEFF0",
"H%	c #B3B1B2",
"I%	c #F5F6F6",
"J%	c #F4F5F5",
"K%	c #8B8989",
"L%	c #278000",
"M%	c #202919",
"N%	c #B7B6B6",
"O%	c #CECFCF",
"P%	c #EDEEEE",
"Q%	c #ECEDEE",
"R%	c #EBEBEC",
"S%	c #EFF0F1",
"T%	c #BEBCBE",
"U%	c #E0DFE0",
"V%	c #EFF0F0",
"W%	c #F8F8F9",
"X%	c #8D8B8B",
"Y%	c #1D2016",
"Z%	c #EEEFF0",
"`%	c #ECECED",
" &	c #EBEBEB",
".&	c #EAEAEB",
"+&	c #ECEDED",
"@&	c #BCBBBC",
"#&	c #DFDEDF",
"$&	c #EBECEC",
"%&	c #8C8A8A",
"&&	c #176000",
"*&	c #41AC00",
"=&	c #4AB800",
"-&	c #53D000",
";&	c #52CC00",
">&	c #3EA600",
",&	c #389E00",
"'&	c #0D5000",
")&	c #161911",
"!&	c #EAEBEB",
"~&	c #E9EAEA",
"{&	c #EAE9EA",
"]&	c #B2B0B1",
"^&	c #E8E8E9",
"/&	c #BBBABB",
"(&	c #F4F5F6",
"_&	c #162400",
":&	c #042600",
"<&	c #042400",
"[&	c #021200",
"}&	c #042000",
"|&	c #052C00",
"1&	c #052800",
"2&	c #042200",
"3&	c #031C00",
"4&	c #141C0E",
"5&	c #E8E9EA",
"6&	c #CDCDCD",
"7&	c #E8E9E9",
"8&	c #E7E8E8",
"9&	c #B2B0B0",
"0&	c #E6E6E7",
"a&	c #B9B9B9",
"b&	c #767475",
"c&	c #E5E5E6",
"d&	c #E3E3E4",
"e&	c #B7B6B7",
"f&	c #29351B",
"g&	c #E6E7E7",
"h&	c #CAC9C9",
"i&	c #D0D0D1",
"j&	c #E7E8E9",
"k&	c #DCDBDC",
"l&	c #BEBDBD",
"m&	c #E6E7E8",
"n&	c #B5B4B4",
"o&	c #CCCCCC",
"p&	c #B0AEAF",
"q&	c #E4E5E5",
"r&	c #D9DADA",
"s&	c #8A8889",
"t&	c #757375",
"u&	c #E2E2E3",
"v&	c #667352",
"w&	c #10130B",
"x&	c #E4E4E5",
"y&	c #C8C8C8",
"z&	c #DAD9DA",
"A&	c #E8E8E8",
"B&	c #CACACA",
"C&	c #AEADAE",
"D&	c #B5B5B6",
"E&	c #D7D7D8",
"F&	c #EDEFEF",
"G&	c #8B8889",
"H&	c #747273",
"I&	c #D8D8D9",
"J&	c #AAA8A8",
"K&	c #576644",
"L&	c #084400",
"M&	c #0D1006",
"N&	c #DADADB",
"O&	c #DBDADB",
"P&	c #C3C3C3",
"Q&	c #DBDBDC",
"R&	c #CDCDCE",
"S&	c #DDDDDF",
"T&	c #A8A7A7",
"U&	c #BFBDBE",
"V&	c #DEDEDE",
"W&	c #DADADA",
"X&	c #D9D8DA",
"Y&	c #A2A0A1",
"Z&	c #DCDCDD",
"`&	c #ACAAAB",
" *	c #CAC9CA",
".*	c #DCDBDB",
"+*	c #868484",
"@*	c #3F3E3E",
"#*	c #3C3B3B",
"$*	c #393838",
"%*	c #2C2B2B",
"&*	c #353F28",
"**	c #073C00",
"=*	c #3D3C3C",
"-*	c #3B3A3A",
";*	c #2F2E2E",
">*	c #323131",
",*	c #3A3939",
"'*	c #2B2A2A",
")*	c #313031",
"!*	c #3A393A",
"~*	c #3B3B3A",
"{*	c #343333",
"]*	c #3E3D3D",
"^*	c #232223",
"/*	c #0F0F0F",
"(*	c #121212",
"_*	c #2C371E",
":*	c #063200",
"<*	c #0A1402",
"[*	c #161616",
"}*	c #060606",
"|*	c #090909",
"1*	c #2A341C",
"2*	c #1A6600",
"3*	c #063000",
"4*	c #0D0F05",
"5*	c #171717",
"6*	c #323A1C",
"7*	c #0A0D03",
"8*	c #186400",
"9*	c #031800",
"0*	c #252F1B",
"a*	c #010A00",
"b*	c #080C02",
"c*	c #333F25",
"d*	c #000200",
"e*	c #10150F",
"                                                                                                ",
"        . + @ @ @ @ @ @ @ @ @ # $ $ $ $ $ $ $ $ $ $ $ $ $ $ $ $ $ $ $ $ $ $ $ $ $ $ $ % & .     ",
"      * = - ; ; ; ; ; ; ; ; % > , , , ' ' ) ! ) ~ { { { { { { { { { { { { { { { { ] ^ > / ( *   ",
"      _ : < [ [ < , , < [ , , > # / } | 1 2 3 4 3 | 5 6 5 5 6 7 8 8 9 9 0 0 a b c ] ^ > d e _   ",
"      f @ g g g g h i i j k l m n _ o p q r s t u v w u x y y y z z A A B C D E F G ^ H I J I   ",
"      < K g L g M h i I i N l O P + Q R S S S v T T v u U U V W X Y U Z U `  ...+.G ^ H @.e @.  ",
"      > . g #.g $.h i n i %.&.O *.=.-.;.>.,.S ,.'.,.).,.).S S S S ).v u !.'.~.{.].G ^ H f ^./.  ",
"      (._.g :.g <.h i [.}.|.1.2.3.4.5.6.7.S ).).r S ,.).).S 8.S ).S S 9.0.a.b.c.d.e.^ (., : [   ",
"      > ( f._ $ g._ f.=.=.- h.> i._.j.k.l.m.n.m.n.o.p.q.r.s.t.u.v.w.x.y.z.A.B.C.D.e.^ (.< : >   ",
"      (.E.f , , , , , , , , /.< F.G.H.I.J.K.L.M.N.O.P.Q.R.S.T.U.V.W.X.Y.Z.`. +.+++] ^ (.< E.(.  ",
"      ( E., < < < < < < < < < < @+#+$+%+&+*+=+-+;+>+,+'+)+!+~+{+]+^+/+(+_+:+<+[+e.{ ^ }+^ E.(   ",
"      = m < [ [ [ [ [ [ [ [ [ < |+1+2+3+4+5+6+7+8+9+0+a+b+c+d+e+@ g.$ ; f+g+h+i+j+^ ^ }+> m =   ",
"      ^.k+[ > > > > > > > > ^ l+f.m+n+o+p+q+r+s+/ d t+u+v+w+x+y+z+H }+l+A+B+C+D+E+F+: : H k+^.  ",
"      G+k+> H H H H H H H H H e }+H+I+J+K+L+M+N+(.H O+P+Q+R+S+T+U+(.> ^ V+W+X+Y+Z+`+H }+(.k+G+  ",
"      k+ @H (.(.(.(.(.(.(.(.(.e d - .@+@@@#@$@% f f % $@#@@@+@.@- I f # $ %@@@&@*@$ / H l+ @k+  ",
"       @=@(.}+}+}+}+}+}+}+}+}+=@-@J }+}+}+}+(.;@>@>@;@(.}+}+}+}+J ,@>@'@H }+}+}+}+H )@!@l+=@ @  ",
"      O 2.l+( ( ( ( ( ( ( ( l+k+O (.^ ^ ^ ^ ^ ^.2.2.^.^ ^ ^ ^ ^ (.O 2.=@[ ^ ^ ^ ^ [ 2. @= 2.O   ",
"      ;@2.}+l+l+l+l+l+l+l+l+l+k+~@=@ @ @ @ @ @2.O O 2. @ @ @ @ @=@O O O  @ @ @ @ @ @O =@( 2.;@  ",
"      {@,@,@)@,@]@^@)@,@'@^@/@(@_@_@_@_@_@_@:@_@_@_@_@<@_@_@_@(@[@_@_@_@_@_@_@_@_@}@_@_@-@|@;@  ",
"      1@2@3@4@5@6@7@8@9@0@a@b@c@d@e@f@g@h@i@j@k@e@l@m@n@o@p@q@r@s@t@d@e@u@l@d@v@w@x@y@z@A@B@)@  ",
"      >@C@D@D@D@E@_@F@G@H@H@H@H@H@I@J@D@D@K@L@C@M@N@O@_@P@D@Q@R@S@T@D@D@Q@U@D@V@W@_@X@D@D@Y@Z@  ",
"      )@`@D@D@D@ #_@.#+#@#######@#$#%#D@D@&#*#=#-#;#>#_@,#D@'#)#!#~#D@{#]#^#D@/#(#_@_#D@D@:#<#  ",
"      -@[#D@}#D@|#1#.#2#3#4#4#4#3#5#6#D@D@7#8#9#;#;#0#a#b#D@c#d#e#f#D@{#g#^#D@i h#i#j#D@D@k#}@  ",
"      <#l#D@D@D@m#n#o#2#p#4#4#4#p#5#q#D@D@r#s#t#;#^#u#v#w#D@x#y#z#&.D@{#g#^#D@A#B#C#D#D@D@E#F#  ",
"      }@G#D@D@D@H#I#J#2#p#4#4#4#p#5#q#D@D@w#K#L#;#M#N#O#P#D@Q#R#S#T#D@{#U#V#D@W#X#Y#Z#D@D@`# $  ",
"      .$+$D@D@D@@$#$$$2#p#4#4#4#p#5#q#D@D@%$&$*$^#N@=$R#-$D@;$>$H#,$D@{#'$)$D@!$~${$;$D@D@]$_@  ",
"       $^$D@/$D@X#($$$2#p#4#4#4#p#5#q#D@D@_$:$<$)$M#[$}$|$D@1$2$3$4$5$N@6$)$U@7$u#8$}.D@D@]$_@  ",
"      _@9$D@0$D@2$Y#J#2#p#4#4#4#p#5#a$D@D@b$7@c$d$;#e$f$g$D@h$i$j$l k$M#l$d$m$n$o$p$Q#D@D@`#_@  ",
"      _@q$D@M#D@r$C#o#2#p#4#4#4#p#5#s$D@D@t$u$v$w$d$x$y$z$D@A$B$C$1.D$^#E$w$F$G$H$I$_#J$D@`#_@  ",
"      _@B#D@K$D@L$_@.#2#p#4#4#4#p#5#M$D@D@N$_@O$P$Q$R$_@S$D@T$U$V$g W$X$E$Q$V#Y$Z$_@`$ %D@.%_@  ",
"      _@+%D@@%D@#%_@$%%%p#4#4#4#p#5#&%*%D@=%_@-%7$W#;%_@>%D@-$,%'%h@;#P$-$)%X$f#!%_@~%{%D@]%_@  ",
"  ^%/%(%(%(%2#(%(%(%/%_%p#4#4#4#4#:%<%[%[%[%[%[%[%[%}%|%1%D@2%3%4%5%d$6%7%8%9%0%a%_@b%c%d%e%_@  ",
"  /%f%3#3#3#3#3#3#3#3#3#4#4#4#4#4#4#4#4#4#4#4#4#4#4#g%h%i%j%k%l%m%n%o%p%7%q%r%l s%t%&.u%v%w%_@  ",
"  /%x%4#4#4#4#4#4#4#4#4#4#4#4#4#4#4#4#4#4#4#4#4#y%z%A%B%C%D%0$E%F%d$G%A#H%V@8%9%4@I%J%n${%K%_@  ",
"  /%x%4#4#4#4#4#4#4#4#4#4#4#4#4#4#4#4#4#4#4#4#4#4#4#L%M%p%D%6%N%O%7$P%Q%H%R%n$S%T%U%V%q%W%X%_@  ",
"  /%x%4#4#4#4#4#4#4#4#4#4#4#4#4#4#4#4#4#4#4#4#4#4#4#(%Y%Z%`%p%N%_#S%`% &%$.&+&q%@&#&q%$&d$%&_@  ",
"  &&*&=&=&=&=&=&=&=&=&-&p#4#4#4#4#x%;&:%=&@#>&,&g%A%'&)&V@!&q%'$v@P%~&{&]&^&.&`%/&h@R%.&(&:#_@  ",
"  _&:&:&:&:&:&:&:&<&[&5#p#4#4#4#p#5#}&|&1&:&2&3&3&}&[&4&G$5&+&'$6&+&7&8&9&0&n%!&a&5%.&^&o%[$_@  ",
"      _@b&{%0&c&d&e&f&2#p#4#4#4#p#+# $G%g&g&h&i&j&g&k&l&n%m&!&n&o&.&g&c&p&q&,$^&e&r&^&0&p%s&_@  ",
"      _@t&W%l d&u&n&v&2#p#4#4#4#p#'&w&+&x&q&y&j#c&&.z&q@0&q&A&l$B&A&x&d&C&u&c&g&D&E&T#x&F&G&_@  ",
"      _@H&i z&I&e@J&K&(%p#4#4#4#p#L&M&d&N&O&/&P&Q&N&R&C&g@N&S&T&U&V&W&X&Y&9@5%Z&`& *.*W&d&+*_@  ",
"      .$^.@*#*- $*%*&*/%p#4#4#4#p#**M&=*% -*;*>*; ,*@.'*% ; - '*)*- !*% l+$*~*- ;*{*#*-*]*^*.$  ",
"      _@<#,@>@/*/@(*_*/%p#4#4#4#p#:*<*: e J ( l+(.(.l+( J e : G+m  @2.O ~@{@[*!@(*/@/*)@-@<#    ",
"        _@.$}*}*Z@|*1*2*p#4#4#4#p#3*4*(*(*!@^@[*5*5*[*^@!@(*(*1@1@/*'@>@)@,@-@|*|*Z@}*}@.$_@    ",
"                    6*2*p#4#4#4#p#<&7*                                                          ",
"                    f&8*3#4#4#4#3#9*7*                                                          ",
"                    0*:*@#######@#a*b*                                                          ",
"                    c*d*_@_@_@_@_@_@e*                                                          "};
