/* XPM */
static char * mapclone_xpm[] = {
"48 48 511 2",
"  	c None",
". 	c #454545",
"+ 	c #494949",
"@ 	c #484848",
"# 	c #474747",
"$ 	c #4E4E4E",
"% 	c #4B4B4B",
"& 	c #353535",
"* 	c #383838",
"= 	c #373737",
"- 	c #313131",
"; 	c #343434",
"> 	c #34343C",
", 	c #363251",
"' 	c #363250",
") 	c #35324F",
"! 	c #35314F",
"~ 	c #34304F",
"{ 	c #33304F",
"] 	c #34314F",
"^ 	c #34324F",
"/ 	c #323047",
"( 	c #2F2E31",
"_ 	c #2F2F2F",
": 	c #2C2C2C",
"< 	c #333333",
"[ 	c #3A3A3A",
"} 	c #413C65",
"| 	c #4E3CBC",
"1 	c #5040C2",
"2 	c #5142C2",
"3 	c #5142C3",
"4 	c #5043C3",
"5 	c #5044C3",
"6 	c #5145C3",
"7 	c #5446C4",
"8 	c #5347C5",
"9 	c #5348C6",
"0 	c #5349C5",
"a 	c #443C97",
"b 	c #2E2C3A",
"c 	c #2D2D2D",
"d 	c #2B2B2B",
"e 	c #2E2E2E",
"f 	c #323232",
"g 	c #434342",
"h 	c #4B4571",
"i 	c #5944D6",
"j 	c #5A48E0",
"k 	c #5B48E0",
"l 	c #5B49E0",
"m 	c #5A49E0",
"n 	c #5949E1",
"o 	c #5A4AE1",
"p 	c #5B4BE1",
"q 	c #5B4AE1",
"r 	c #5B4BE2",
"s 	c #5C4AE1",
"t 	c #5C49E0",
"u 	c #4A3CAA",
"v 	c #2E2C3B",
"w 	c #282828",
"x 	c #4C4C4C",
"y 	c #534E77",
"z 	c #5F47D5",
"A 	c #5B47DD",
"B 	c #5A45DD",
"C 	c #5A46DD",
"D 	c #5945DD",
"E 	c #5944DC",
"F 	c #5A45DC",
"G 	c #5944DD",
"H 	c #5843DD",
"I 	c #5742DC",
"J 	c #573DDB",
"K 	c #5439DA",
"L 	c #4532A6",
"M 	c #2E2B3C",
"N 	c #262626",
"O 	c #232323",
"P 	c #2A2A2A",
"Q 	c #565656",
"R 	c #5A5869",
"S 	c #5F5193",
"T 	c #5F4F91",
"U 	c #5C5191",
"V 	c #5B488F",
"W 	c #51448E",
"X 	c #4E418B",
"Y 	c #4C3E8A",
"Z 	c #493B88",
"` 	c #453885",
" .	c #413483",
"..	c #3E3081",
"+.	c #3B2C7F",
"@.	c #352A68",
"#.	c #2C2B34",
"$.	c #292929",
"%.	c #5E5E5E",
"&.	c #6B6F58",
"*.	c #767151",
"=.	c #72664D",
"-.	c #616752",
";.	c #69504D",
">.	c #574A4D",
",.	c #48474C",
"'.	c #454347",
").	c #403E43",
"!.	c #3C3A40",
"~.	c #38363C",
"{.	c #343237",
"].	c #312F34",
"^.	c #2E2C30",
"/.	c #2B2B2A",
"(.	c #212121",
"_.	c #474846",
":.	c #606743",
"<.	c #79873D",
"[.	c #61653C",
"}.	c #45473C",
"|.	c #423A38",
"1.	c #3F403A",
"2.	c #5B6436",
"3.	c #677432",
"4.	c #454934",
"5.	c #303030",
"6.	c #393B2F",
"7.	c #576328",
"8.	c #556026",
"9.	c #33362B",
"0.	c #252525",
"a.	c #1E1E1E",
"b.	c #494C3A",
"c.	c #5A6338",
"d.	c #4A4D3A",
"e.	c #343333",
"f.	c #383836",
"g.	c #4F543A",
"h.	c #586038",
"i.	c #43453A",
"j.	c #3E3F39",
"k.	c #545C39",
"l.	c #545B39",
"m.	c #1C1C1C",
"n.	c #272727",
"o.	c #2C2C2D",
"p.	c #2C2B2C",
"q.	c #191919",
"r.	c #242424",
"s.	c #2D2C2D",
"t.	c #202020",
"u.	c #1A1A1A",
"v.	c #1B1B1B",
"w.	c #1D1D1D",
"x.	c #161616",
"y.	c #1A1B1B",
"z.	c #181818",
"A.	c #171717",
"B.	c #666666",
"C.	c #646464",
"D.	c #2E2D2D",
"E.	c #5B5B5B",
"F.	c #585757",
"G.	c #323031",
"H.	c #676767",
"I.	c #5B5A5B",
"J.	c #696868",
"K.	c #373636",
"L.	c #3C3B3B",
"M.	c #626162",
"N.	c #2E2D2E",
"O.	c #474646",
"P.	c #5D5C5D",
"Q.	c #262525",
"R.	c #4D4C4C",
"S.	c #686868",
"T.	c #5A595A",
"U.	c #504F4F",
"V.	c #252324",
"W.	c #626262",
"X.	c #646363",
"Y.	c #34304E",
"Z.	c #262337",
"`.	c #49474B",
" +	c #DFDEDF",
".+	c #D3D2D2",
"++	c #3D3A3B",
"@+	c #B4B4B4",
"#+	c #ACAAAA",
"$+	c #434041",
"%+	c #CFCFCF",
"&+	c #F0F0F0",
"*+	c #D4D3D3",
"=+	c #E7E6E6",
"-+	c #636061",
";+	c #777475",
">+	c #D9D8D9",
",+	c #555354",
"'+	c #8D8C8C",
")+	c #C6C5C6",
"!+	c #3E3A3B",
"~+	c #A09E9F",
"{+	c #D2D1D1",
"]+	c #F1F1F1",
"^+	c #A8A6A6",
"/+	c #3B393A",
"(+	c #D9D7D8",
"_+	c #474546",
":+	c #4B3AB6",
"<+	c #362B83",
"[+	c #484753",
"}+	c #E5E5E5",
"|+	c #DBDADA",
"1+	c #3A3737",
"2+	c #B9B8B8",
"3+	c #AFADAD",
"4+	c #413D3E",
"5+	c #D6D5D5",
"6+	c #F7F6F6",
"7+	c #D7D6D7",
"8+	c #EEEDEE",
"9+	c #625E5F",
"0+	c #757273",
"a+	c #545252",
"b+	c #8D8B8B",
"c+	c #CBC9CA",
"d+	c #3B3637",
"e+	c #A3A1A2",
"f+	c #F6F6F6",
"g+	c #ABA9AA",
"h+	c #393737",
"i+	c #D8D7D7",
"j+	c #DAD9DA",
"k+	c #414040",
"l+	c #5641CF",
"m+	c #3D3196",
"n+	c #484653",
"o+	c #E0DFE0",
"p+	c #4F4B4C",
"q+	c #C0BEBE",
"r+	c #B8B7B7",
"s+	c #545050",
"t+	c #D9D8D8",
"u+	c #D7D6D6",
"v+	c #736F70",
"w+	c #827F80",
"x+	c #E3E2E3",
"y+	c #676364",
"z+	c #979494",
"A+	c #D1D0D0",
"B+	c #4E4A4B",
"C+	c #F6F7F7",
"D+	c #B5B4B4",
"E+	c #4B4748",
"F+	c #DAD9D9",
"G+	c #3E3D3D",
"H+	c #222222",
"I+	c #5C44CE",
"J+	c #3C2F93",
"K+	c #464451",
"L+	c #E5E4E5",
"M+	c #656263",
"N+	c #C7C6C6",
"O+	c #C3C1C1",
"P+	c #686566",
"Q+	c #DDDCDC",
"R+	c #D7D5D6",
"S+	c #F2F2F2",
"T+	c #848282",
"U+	c #908E8E",
"V+	c #E6E6E6",
"W+	c #7B7879",
"X+	c #A2A0A0",
"Y+	c #D6D6D6",
"Z+	c #646162",
"`+	c #B6B4B5",
" @	c #D1D0D1",
".@	c #C0BFBF",
"+@	c #5F5C5D",
"@@	c #DDDDDD",
"#@	c #3D3B3C",
"$@	c #5C4E8E",
"%@	c #3E345F",
"&@	c #47444A",
"*@	c #E4E3E4",
"=@	c #E1E1E2",
"-@	c #5D5A5B",
";@	c #C3C3C3",
">@	c #BEBCBD",
",@	c #605D5E",
"'@	c #F4F4F4",
")@	c #D6D5D6",
"!@	c #7D7B7B",
"~@	c #8B8889",
"{@	c #E4E3E3",
"]@	c #737071",
"^@	c #9E9C9C",
"/@	c #5C595A",
"(@	c #B0B0B0",
"_@	c #F3F4F4",
":@	c #D0CFD0",
"<@	c #BBB9BA",
"[@	c #585555",
"}@	c #DBDBDB",
"|@	c #726D4E",
"1@	c #4B4332",
"2@	c #484746",
"3@	c #DBDADB",
"4@	c #423F3F",
"5@	c #BAB9B9",
"6@	c #B0AEAE",
"7@	c #474444",
"8@	c #D4D4D4",
"9@	c #F2F2F3",
"0@	c #EEEEEE",
"a@	c #666464",
"b@	c #797777",
"c@	c #DEDDDE",
"d@	c #5A5758",
"e@	c #918E8F",
"f@	c #CBCBCB",
"g@	c #A4A3A3",
"h@	c #CFCECE",
"i@	c #ADABAB",
"j@	c #3F3D3D",
"k@	c #3D3C3C",
"l@	c #75823B",
"m@	c #3F4227",
"n@	c #474746",
"o@	c #E3E3E3",
"p@	c #D4D3D4",
"q@	c #2E2C2C",
"r@	c #B5B5B5",
"s@	c #A3A2A2",
"t@	c #D2D2D2",
"u@	c #EAEAEA",
"v@	c #545354",
"w@	c #6E6C6D",
"x@	c #D8D7D8",
"y@	c #484747",
"z@	c #898889",
"A@	c #C2C1C2",
"B@	c #2C2A2A",
"C@	c #9C9B9B",
"D@	c #EEEEEF",
"E@	c #CECDCD",
"F@	c #9F9E9F",
"G@	c #313030",
"H@	c #D8D8D8",
"I@	c #565F36",
"J@	c #303225",
"K@	c #E2E2E2",
"L@	c #D3D3D3",
"M@	c #434142",
"N@	c #BBBBBB",
"O@	c #A9A9A9",
"P@	c #4D4C4D",
"Q@	c #D5D5D5",
"R@	c #EDEDEE",
"S@	c #D2D1D2",
"T@	c #E7E7E8",
"U@	c #656464",
"V@	c #7E7D7E",
"W@	c #D7D7D7",
"X@	c #585758",
"Y@	c #979697",
"Z@	c #C4C4C4",
"`@	c #403E3E",
" #	c #A5A4A4",
".#	c #ECECED",
"+#	c #CCCBCC",
"@#	c #EBECEC",
"##	c #A2A2A2",
"$#	c #D7D7D8",
"%#	c #2A2A2B",
"&#	c #1C1B1C",
"*#	c #E1E1E1",
"=#	c #F2F1F2",
"-#	c #BFBEBE",
";#	c #E7E7E6",
">#	c #C2C1C1",
",#	c #F3F3F3",
"'#	c #CFCECF",
")#	c #F4F4F5",
"!#	c #CECDCE",
"~#	c #C4C3C4",
"{#	c #DDDDDE",
"]#	c #E9EAEA",
"^#	c #B5B4B5",
"/#	c #EBEBEC",
"(#	c #CAC9CA",
"_#	c #EBEBEB",
":#	c #D8D8D9",
"<#	c #BDBCBD",
"[#	c #EFF0F0",
"}#	c #D5D4D5",
"|#	c #121212",
"1#	c #4A4849",
"2#	c #E6E6E7",
"3#	c #D3D3D4",
"4#	c #CDCCCD",
"5#	c #DEDEDE",
"6#	c #E1E2E2",
"7#	c #E9E9E9",
"8#	c #C7C7C7",
"9#	c #E2E3E3",
"0#	c #E8E8E9",
"a#	c #C9C8C9",
"b#	c #3E3E3E",
"c#	c #292829",
"d#	c #232222",
"e#	c #4F4E4E",
"f#	c #DFE0E0",
"g#	c #E7E7E7",
"h#	c #E2E2E3",
"i#	c #E3E3E4",
"j#	c #D0D0D0",
"k#	c #E9E9EA",
"l#	c #E4E4E5",
"m#	c #DFDFDF",
"n#	c #C5C5C5",
"o#	c #E0E0E0",
"p#	c #C7C6C7",
"q#	c #E5E5E6",
"r#	c #4B4A4B",
"s#	c #DEDDDD",
"t#	c #3F3D3E",
"u#	c #575556",
"v#	c #DEDEDF",
"w#	c #D0D0D1",
"x#	c #DFDFE0",
"y#	c #E0E0E1",
"z#	c #CDCDCE",
"A#	c #D1D1D1",
"B#	c #DCDCDD",
"C#	c #DDDEDE",
"D#	c #C5C4C5",
"E#	c #D4D5D5",
"F#	c #D1D1D2",
"G#	c #CECECE",
"H#	c #3E3C3C",
"I#	c #535253",
"J#	c #CFCFD0",
"K#	c #CACACA",
"L#	c #BAB9BA",
"M#	c #CCCCCD",
"N#	c #C1C0C0",
"O#	c #C8C7C8",
"P#	c #B2B1B2",
"Q#	c #C9C9C9",
"R#	c #B3B2B3",
"S#	c #C1C1C2",
"T#	c #BBBABB",
"U#	c #3A3939",
"V#	c #4F4D4D",
"W#	c #464646",
"X#	c #404040",
"Y#	c #4A494A",
"Z#	c #403F3F",
"`#	c #4B4A4A",
" $	c #494848",
".$	c #3D3D3D",
"+$	c #444444",
"@$	c #403F40",
"#$	c #121112",
"$$	c #454444",
"%$	c #717070",
"&$	c #3B3B3B",
"*$	c #1E1D1D",
"=$	c #282727",
"-$	c #1E1D1E",
";$	c #3C3C3C",
">$	c #414141",
",$	c #262526",
"'$	c #414041",
")$	c #131313",
"!$	c #101010",
"~$	c #0D0D0D",
"{$	c #0C0C0C",
"]$	c #090909",
"^$	c #070707",
"/$	c #050505",
"($	c #454343",
"_$	c #7A7878",
":$	c #797677",
"<$	c #AAAAAA",
"[$	c #525051",
"}$	c #716F6F",
"|$	c #989797",
"1$	c #423F40",
"2$	c #7E7E7E",
"3$	c #AEAFAF",
"4$	c #969596",
"5$	c #AFAFAF",
"6$	c #878586",
"7$	c #403D3D",
"8$	c #9E9E9E",
"9$	c #9C9B9C",
"0$	c #2A2829",
"a$	c #464445",
"b$	c #4A4949",
"c$	c #4C4B4B",
"d$	c #4F4D4E",
"e$	c #515050",
"f$	c #504F50",
"g$	c #464545",
"h$	c #010101",
"i$	c #060606",
"j$	c #080808",
"k$	c #0B0B0B",
"l$	c #0E0E0E",
"                                                                                                ",
"                                                                                                ",
"                                                                                                ",
"                                                                                                ",
"                                                                                                ",
"                                  . + + + + + @ # $ $ $ $ $ $ $ $ $ $ $ $ $ $ $ $ % @           ",
"                                  & & * * * = = - ; > , ' ) ! ~ ~ ~ { ! ] ^ ^ / ( _ - ;         ",
"                                  _ : _ _ _ _ _ < [ } | 1 2 3 4 5 6 6 7 8 9 0 a b : c d         ",
"                                  - d e _ e e _ f g h i j k l m n o p q r s t u v : : w         ",
"                                  d d c e c c e < x y z A B C D E F G H I J K L M : d N         ",
"                                  O P : : : : : c Q R S T U V W X Y Z `  ...+.@.#.: $.O         ",
"                                  O $.d d d d d : %.&.*.=.-.;.>.,.'.).!.~.{.].^.: /.w (.        ",
"                                  (.$.d d d d d d _.:.<.[.}.|.1.2.3.4.5.c 6.7.8.9.N 0.a.        ",
"                                  a.$.d d d d P w ; b.c.d.e.: f.g.h.i.5.c j.k.l.j.P N m.        ",
"                                  m.n.$.$.$.$.w a.(.: o.p.(.q.r.s.o.p.a.q.w o.o.w m.t.q.        ",
"                                  u.(.O r.O O r.v.q.w.w.w.q.x.y.w.w.w.z.x.m.w.w.w.z.w.A.        ",
"          . + + + + + @ # $ $ % & p.B.C.D.E.F.G.C.H.I.J.K.L.M.N.O.P.Q.R.S.T.S.U.V.W.X.Q.        ",
"          5.& * * * = = - ; > Y.Z.`. +.+++@+#+$+%+&+*+=+-+;+>+,+'+)+!+~+&+{+]+^+/+*+(+_+        ",
"          $.: _ _ _ _ _ < [ } :+<+[+}+|+1+2+3+4+5+6+7+8+9+0+ +a+b+c+d+e+f+.+f+g+h+i+j+k+        ",
"          O d e _ e e _ f g h l+m+n+}+o+p+q+r+s+t+6+u+&+v+w+x+y+z+A+B+g+f+{+C+D+E+j+F+G+        ",
"          H+w c e c c e < x y I+J+K+}+L+M+N+O+P+Q+f+R+S+T+U+V+W+X+Y+Z+`+f+ @f+.@+@@@>+#@        ",
"          r.P : : : : : c Q R $@%@&@*@=@-@;@>@,@F+'@)@]+!@~@{@]@^@*+/@(@_@:@'@<@[@}@>+#@        ",
"          O $.d d d d d : %.&.|@1@2@x+3@4@5@6@7@8@9@5+0@a@b@c@d@e@f@4+g@]+h@S+i@j@7+>+k@        ",
"          (.$.d d d d d d _.:.l@m@n@o@p@q@r@s@K.t@&+8@u@v@w@x@y@z@A@B@C@D@E@D@F@G@p@H@k@        ",
"          a.$.d d d d P w ; b.I@J@y@K@L@M@N@O@P@Q@R@S@T@U@V@W@X@Y@Z@`@ #.#+#@###y@W@$#G+        ",
"          m.n.$.$.$.$.w a.(.: %#&#y@*#=#-#;#K@>#,#u@'#)#!#:@D@~#{#]#^#=@/#(#_#:#<#[#}#G+        ",
"          q.(.O r.O O r.v.q.w.v.|#1#*#u@}#}+2#3#.#T@4#D@5#H@]#Y+6#7#8#9#0#a#7#3@x@.#L@b#        ",
"          c#B.C.D.E.F.G.C.H.I.U@d#e#f#g#.+h#i#j#k#l#(#_#}@Y+g#L@m#V+n#o#}+p#q#$#p@0# @b#        ",
"          r# +.+++@+#+$+%+&+*+s#t#u#v#l#w#x#y#z#2#K@8#0#:#8@l#A#B#9#Z@C#h#D#9#E#F#q#G#G+        ",
"          @ }+|+1+2+3+4+5+6+7+*@H#I#(#J#<#K#f@L#F#M#^#3#Z@N#J#<#O#G#P#Q#z#R#G#S#<#A#T#U#        ",
"          O.}+o+p+q+r+s+t+6+u+7#V#: O.W#X## @ X#Y#Y#Z#$ + @ $ W#`#x Z# $+ .$@ +$k+W#@$#$        ",
"          $$}+L+M+N+O+P+Q+f+R+&+%$O.&$*$=$< -$_ ;$= >$* ,$>$'$t.A.A.x.)$|#!$~${$]$^$/$          ",
"          ($*@=@-@;@>@,@F+'@)@]+_$:$<$[$}$|$1$2$3$4$5$6$7$8$9$0$                                ",
"          a$x+3@4@5@6@7@8@9@5+0@a@b@c@d@e@f@4+g@]+h@S+i@j@7+>+k@                                ",
"          y@o@p@q@r@s@K.t@&+8@u@v@w@x@y@z@A@B@C@D@E@D@F@G@p@H@k@                                ",
"          b$K@L@M@N@O@P@Q@R@S@T@U@V@W@X@Y@Z@`@ #.#+#@###y@W@$#G+                                ",
"          c$*#=#-#;#K@>#,#u@'#)#!#:@D@~#{#]#^#=@/#(#_#:#<#[#}#G+                                ",
"          d$*#u@}#}+2#3#.#T@4#D@5#H@]#Y+6#7#8#9#0#a#7#3@x@.#L@b#                                ",
"          e$f#g#.+h#i#j#k#l#(#_#}@Y+g#L@m#V+n#o#}+p#q#$#p@0# @b#                                ",
"          v@v#l#w#x#y#z#2#K@8#0#:#8@l#A#B#9#Z@C#h#D#9#E#F#q#G#G+                                ",
"          f$(#J#<#K#f@L#F#M#^#3#Z@N#J#<#O#G#P#Q#z#R#G#S#<#A#T#U#                                ",
"          m.g$W#X## @ X#Y#Y#Z#$ + @ $ W#`#x Z# $+ .$@ +$k+W#@$#$                                ",
"          h$i$j$k$~$l$!$!$)$x.z.q.m.w.v.q.A.x.)$|#!$~${$]$^$/$                                  ",
"                                                                                                ",
"                                                                                                ",
"                                                                                                ",
"                                                                                                ",
"                                                                                                "};
