/* XPM */
static char * mapremove_xpm[] = {
"48 48 878 2",
"  	c None",
". 	c #575757",
"+ 	c #424242",
"@ 	c #414141",
"# 	c #383838",
"$ 	c #3C3C3C",
"% 	c #3A3A3A",
"& 	c #404040",
"* 	c #535353",
"= 	c #272727",
"- 	c #3B3B3B",
"; 	c #393939",
"> 	c #2D2D2D",
", 	c #313131",
"' 	c #303130",
") 	c #2F302F",
"! 	c #2F302E",
"~ 	c #2E2F2E",
"{ 	c #2E2E2D",
"] 	c #2D2D2E",
"^ 	c #2E2E2E",
"/ 	c #373737",
"( 	c #282828",
"_ 	c #3D3D3D",
": 	c #232323",
"< 	c #303030",
"[ 	c #2F2F2F",
"} 	c #373B37",
"| 	c #3C3181",
"1 	c #413385",
"2 	c #3E3383",
"3 	c #3D3282",
"4 	c #3F3282",
"5 	c #3C3282",
"6 	c #3A3181",
"7 	c #383181",
"8 	c #3D3383",
"9 	c #3B3383",
"0 	c #3B3482",
"a 	c #3C3583",
"b 	c #3A3381",
"c 	c #302C4E",
"d 	c #363636",
"e 	c #252525",
"f 	c #333333",
"g 	c #E0E0E0",
"h 	c #D1D1D1",
"i 	c #ECECEC",
"j 	c #B7B7B7",
"k 	c #646464",
"l 	c #E4E4E4",
"m 	c #202020",
"n 	c #3E3E3E",
"o 	c #3D433B",
"p 	c #5039C5",
"q 	c #5A44E0",
"r 	c #5846E0",
"s 	c #5D48DE",
"t 	c #5C4AE0",
"u 	c #5A4CE2",
"v 	c #5D4BE1",
"w 	c #594BE1",
"x 	c #5D4FE3",
"y 	c #5E50E2",
"z 	c #5F51E3",
"A 	c #6153E5",
"B 	c #6056E6",
"C 	c #6156E6",
"D 	c #5E57E7",
"E 	c #5C53DD",
"F 	c #352F63",
"G 	c #2D2C2D",
"H 	c #2C2C2C",
"I 	c #353535",
"J 	c #262626",
"K 	c #565656",
"L 	c #BBBBBB",
"M 	c #B3B3B3",
"N 	c #979797",
"O 	c #1B1B1B",
"P 	c #444444",
"Q 	c #434942",
"R 	c #553FC5",
"S 	c #5B49E1",
"T 	c #5E4CE2",
"U 	c #5B4DE3",
"V 	c #5C4EE2",
"W 	c #5C4EE4",
"X 	c #5F4EE2",
"Y 	c #5F4DE3",
"Z 	c #604EE4",
"` 	c #614FE3",
" .	c #6150E4",
"..	c #594BDB",
"+.	c #342E62",
"@.	c #343434",
"#.	c #A2A2A2",
"$.	c #B6B6B6",
"%.	c #999999",
"&.	c #E5E5E5",
"*.	c #4B4B4B",
"=.	c #494949",
"-.	c #484E47",
";.	c #5B42C6",
">.	c #5E44E0",
",.	c #5A48E0",
"'.	c #5C46E0",
").	c #5947E1",
"!.	c #5D47E1",
"~.	c #5B45E1",
"{.	c #5742D8",
"].	c #352D63",
"^.	c #242424",
"/.	c #323232",
"(.	c #2B2B2B",
"_.	c #545454",
":.	c #A1A1A1",
"<.	c #B4B4B4",
"[.	c #C4C4C4",
"}.	c #D3D3D3",
"|.	c #8F8F8F",
"1.	c #E2E2E2",
"2.	c #1C1C1C",
"3.	c #515151",
"4.	c #4E4E4E",
"5.	c #4E544D",
"6.	c #5F46C8",
"7.	c #5E48E2",
"8.	c #5C4AE2",
"9.	c #5C46E2",
"0.	c #5B40E0",
"a.	c #583DDF",
"b.	c #573CE0",
"c.	c #5339D7",
"d.	c #352C62",
"e.	c #2D2C2E",
"f.	c #434343",
"g.	c #3F3F3F",
"h.	c #454545",
"i.	c #585858",
"j.	c #545A53",
"k.	c #634CC6",
"l.	c #694BD9",
"m.	c #6247D7",
"n.	c #6145D7",
"o.	c #5D45D7",
"p.	c #5C43D7",
"q.	c #5D41D5",
"r.	c #5B40D2",
"s.	c #5B3ED6",
"t.	c #593DD3",
"u.	c #5A3DD5",
"v.	c #593CD6",
"w.	c #573AD4",
"x.	c #5037D3",
"y.	c #5437D3",
"z.	c #5234D4",
"A.	c #5031D3",
"B.	c #4E2FD3",
"C.	c #4B2DCD",
"D.	c #322A62",
"E.	c #212121",
"F.	c #5D5D5D",
"G.	c #5A5A5A",
"H.	c #595B59",
"I.	c #585476",
"J.	c #585373",
"K.	c #575272",
"L.	c #545070",
"M.	c #514D6F",
"N.	c #514C6C",
"O.	c #4F4B6B",
"P.	c #4B4769",
"Q.	c #4B4567",
"R.	c #464365",
"S.	c #474163",
"T.	c #433E62",
"U.	c #403B5F",
"V.	c #3E395D",
"W.	c #3C375B",
"X.	c #383359",
"Y.	c #373258",
"Z.	c #342F55",
"`.	c #312C54",
" +	c #302A52",
".+	c #2F2951",
"++	c #2C2B3F",
"@+	c #636363",
"#+	c #5F5F5F",
"$+	c #62635C",
"%+	c #899749",
"&+	c #676054",
"*+	c #A7772E",
"=+	c #5A5D57",
"-+	c #7F8B46",
";+	c #525553",
">+	c #A14C3E",
",+	c #554B4C",
"'+	c #4B494C",
")+	c #484649",
"!+	c #464447",
"~+	c #444144",
"{+	c #413E41",
"]+	c #3E3C3F",
"^+	c #3C3A3D",
"/+	c #39363A",
"(+	c #383538",
"_+	c #353235",
":+	c #323033",
"<+	c #302D30",
"[+	c #2D2A2E",
"}+	c #2A2A2A",
"|+	c #6D6D6D",
"1+	c #686868",
"2+	c #676764",
"3+	c #7B8556",
"4+	c #625E5E",
"5+	c #8E7043",
"6+	c #5D615C",
"7+	c #737D50",
"8+	c #565A57",
"9+	c #885348",
"0+	c #555151",
"a+	c #4E4E4F",
"b+	c #4A494D",
"c+	c #44424A",
"d+	c #434147",
"e+	c #434244",
"f+	c #373637",
"g+	c #323134",
"h+	c #2C2B32",
"i+	c #2B2930",
"j+	c #2C2B2E",
"k+	c #1F1F1F",
"l+	c #292929",
"m+	c #3F3F40",
"n+	c #50553C",
"o+	c #788835",
"p+	c #8BA231",
"q+	c #697635",
"r+	c #434638",
"s+	c #373738",
"t+	c #343435",
"u+	c #3D4032",
"v+	c #5F6D2C",
"w+	c #809625",
"x+	c #6B7B27",
"y+	c #40452C",
"z+	c #2C2C2D",
"A+	c #2B2D28",
"B+	c #485222",
"C+	c #70851B",
"D+	c #6C801A",
"E+	c #404920",
"F+	c #252623",
"G+	c #222222",
"H+	c #414042",
"I+	c #575C42",
"J+	c #81913D",
"K+	c #96AC3A",
"L+	c #74823F",
"M+	c #505344",
"N+	c #363537",
"O+	c #363637",
"P+	c #505345",
"Q+	c #75823F",
"R+	c #96AD3B",
"S+	c #82933E",
"T+	c #585E43",
"U+	c #424243",
"V+	c #4C4E48",
"W+	c #697342",
"X+	c #92A83C",
"Y+	c #8FA43D",
"Z+	c #646D43",
"`+	c #4B4B49",
" @	c #1E1E1E",
".@	c #3B3A3C",
"+@	c #38373C",
"@@	c #37363D",
"#@	c #39383C",
"$@	c #3B3B3C",
"%@	c #3A393C",
"&@	c #37363C",
"*@	c #3A3A3C",
"=@	c #1D1D1D",
"-@	c #0A0A0A",
";@	c #191919",
">@	c #0D0D0D",
",@	c #0B0B0B",
"'@	c #0E0E0E",
")@	c #0C0C0C",
"!@	c #141414",
"~@	c #1A1A1A",
"{@	c #181818",
"]@	c #131313",
"^@	c #151515",
"/@	c #111111",
"(@	c #020202",
"_@	c #000000",
":@	c #040404",
"<@	c #040505",
"[@	c #020302",
"}@	c #050505",
"|@	c #080909",
"1@	c #101010",
"2@	c #545052",
"3@	c #D8D8D8",
"4@	c #CCCBCC",
"5@	c #D5D4D5",
"6@	c #4D4949",
"7@	c #2B2728",
"8@	c #BEBDBE",
"9@	c #D8D7D7",
"0@	c #A19F9F",
"a@	c #282425",
"b@	c #737171",
"c@	c #DFDFDF",
"d@	c #D9D8D8",
"e@	c #D6D5D6",
"f@	c #979595",
"g@	c #DEDDDD",
"h@	c #DDDCDD",
"i@	c #A3A1A2",
"j@	c #282426",
"k@	c #747172",
"l@	c #D4D3D4",
"m@	c #747173",
"n@	c #1C1819",
"o@	c #AFADAE",
"p@	c #DEDDDE",
"q@	c #BDBBBC",
"r@	c #3F3C3D",
"s@	c #373234",
"t@	c #D2D1D2",
"u@	c #A4A2A3",
"v@	c #CECDCE",
"w@	c #5E5C5C",
"x@	c #1D1819",
"y@	c #D1D0D0",
"z@	c #DAD9D9",
"A@	c #DFDEDE",
"B@	c #838081",
"C@	c #595758",
"D@	c #FFFFFF",
"E@	c #FFFCFE",
"F@	c #2C2729",
"G@	c #D3D2D2",
"H@	c #9D9B9C",
"I@	c #0E080A",
"J@	c #4A494A",
"K@	c #BCBBBB",
"L@	c #948387",
"M@	c #251417",
"N@	c #FAF9F9",
"O@	c #FAFAFA",
"P@	c #646162",
"Q@	c #A5A3A4",
"R@	c #C2C1C2",
"S@	c #231E20",
"T@	c #201D1D",
"U@	c #E5E4E4",
"V@	c #FDFDFD",
"W@	c #EDEDED",
"X@	c #444041",
"Y@	c #CECDCD",
"Z@	c #999697",
"`@	c #080808",
" #	c #525251",
".#	c #F5F3F3",
"+#	c #2A2425",
"@#	c #D2D0D1",
"##	c #FEFEFE",
"$#	c #9C9999",
"%#	c #0A0204",
"&#	c #4D4C4D",
"*#	c #B1AFB0",
"=#	c #D4CED1",
"-#	c #814D5B",
";#	c #6A2D3D",
">#	c #5E5255",
",#	c #F7F6F7",
"'#	c #F7F7F7",
")#	c #615D5D",
"!#	c #A7A4A5",
"~#	c #C3C2C2",
"{#	c #1A1315",
"]#	c #211D1E",
"^#	c #E3E2E3",
"/#	c #FBFBFB",
"(#	c #B8B6B7",
"_#	c #F8F8F8",
":#	c #EBEAEA",
"<#	c #403B3C",
"[#	c #CFCECF",
"}#	c #8C898A",
"|#	c #070707",
"1#	c #0B090B",
"2#	c #545051",
"3#	c #FEFBFD",
"4#	c #D6BEBE",
"5#	c #905252",
"6#	c #431818",
"7#	c #070000",
"8#	c #9F9C9D",
"9#	c #100B0C",
"0#	c #4F4D4E",
"a#	c #B0AEAE",
"b#	c #CEC2C4",
"c#	c #844C59",
"d#	c #630505",
"e#	c #770008",
"f#	c #721D32",
"g#	c #D5BDC3",
"h#	c #666163",
"i#	c #020000",
"j#	c #A8A6A7",
"k#	c #C5C4C5",
"l#	c #1F191A",
"m#	c #252222",
"n#	c #E4E3E4",
"o#	c #B7B5B5",
"p#	c #454142",
"q#	c #010000",
"r#	c #D0CFCF",
"s#	c #898586",
"t#	c #0C0809",
"u#	c #534E51",
"v#	c #D9BFBF",
"w#	c #994040",
"x#	c #960000",
"y#	c #820606",
"z#	c #3C0909",
"A#	c #CFC9C9",
"B#	c #A9A7A7",
"C#	c #262021",
"D#	c #585454",
"E#	c #978A8C",
"F#	c #874C5B",
"G#	c #770909",
"H#	c #A50000",
"I#	c #BA0000",
"J#	c #96000D",
"K#	c #9A435B",
"L#	c #D6BEC3",
"M#	c #757172",
"N#	c #171213",
"O#	c #ADABAB",
"P#	c #CDCBCB",
"Q#	c #322C2D",
"R#	c #342F30",
"S#	c #EFEEEF",
"T#	c #575354",
"U#	c #110C0D",
"V#	c #D2D1D1",
"W#	c #898686",
"X#	c #020303",
"Y#	c #504646",
"Z#	c #721A1A",
"`#	c #AE0000",
" $	c #FA0008",
".$	c #EB0005",
"+$	c #890303",
"@$	c #A47474",
"#$	c #F5F0F0",
"$$	c #B2B1B1",
"%$	c #393536",
"&$	c #635F60",
"*$	c #743948",
"=$	c #EE0005",
"-$	c #F10007",
";$	c #C90000",
">$	c #99000D",
",$	c #9B445B",
"'$	c #7C636A",
")$	c #2C2728",
"!$	c #423E3F",
"~$	c #464242",
"{$	c #E6E6E6",
"]$	c #B6B5B5",
"^$	c #F7F8F8",
"/$	c #F1F1F1",
"($	c #676465",
"_$	c #252021",
":$	c #D3D1D2",
"<$	c #878485",
"[$	c #010101",
"}$	c #0C0202",
"|$	c #600707",
"1$	c #B10000",
"2$	c #F70007",
"3$	c #FF000A",
"4$	c #FD0008",
"5$	c #D50000",
"6$	c #991414",
"7$	c #B88888",
"8$	c #B5AEAE",
"9$	c #4F4B4B",
"0$	c #6E6B6C",
"a$	c #750607",
"b$	c #F40007",
"c$	c #93000B",
"d$	c #6E273A",
"e$	c #463C3F",
"f$	c #B4B3B3",
"g$	c #D4D4D4",
"h$	c #555252",
"i$	c #595556",
"j$	c #E7E7E8",
"k$	c #B6B4B5",
"l$	c #F8F7F7",
"m$	c #F3F2F2",
"n$	c #777475",
"o$	c #3B3737",
"p$	c #868384",
"q$	c #250001",
"r$	c #800000",
"s$	c #E50004",
"t$	c #FF000B",
"u$	c #7D0000",
"v$	c #916B6C",
"w$	c #4C494A",
"x$	c #6C6A6A",
"y$	c #D5D0D2",
"z$	c #734A57",
"A$	c #620101",
"B$	c #9C0000",
"C$	c #5D0011",
"D$	c #AC6E7D",
"E$	c #B5B0B1",
"F$	c #D3D2D3",
"G$	c #535051",
"H$	c #565354",
"I$	c #E7E7E7",
"J$	c #FDFFFF",
"K$	c #B5B4B5",
"L$	c #F2F2F2",
"M$	c #383536",
"N$	c #0E0000",
"O$	c #480707",
"P$	c #951010",
"Q$	c #3D2829",
"R$	c #5B5154",
"S$	c #7F4554",
"T$	c #770809",
"U$	c #C00000",
"V$	c #7A0007",
"W$	c #683742",
"X$	c #554347",
"Y$	c #AEA9AA",
"Z$	c #CECCCD",
"`$	c #3E3A3C",
" %	c #423E3E",
".%	c #FCFCFC",
"+%	c #F9F9F9",
"@%	c #B5B3B4",
"#%	c #F6F6F6",
"$%	c #FAFBFC",
"%%	c #EFEFEF",
"&%	c #625F5F",
"*%	c #201C1D",
"=%	c #392829",
"-%	c #5E1818",
";%	c #9F0000",
">%	c #870101",
",%	c #5B0606",
"'%	c #6C0303",
")%	c #C30000",
"!%	c #800008",
"~%	c #763D4D",
"{%	c #696163",
"]%	c #151012",
"^%	c #AAA9A9",
"/%	c #C7C5C6",
"(%	c #2B2828",
"_%	c #2F2B2A",
":%	c #FBFAFB",
"<%	c #B5B3B3",
"[%	c #F4F4F5",
"}%	c #FAF9FA",
"|%	c #EBECEB",
"1%	c #504D4D",
"2%	c #0B0808",
"3%	c #FEFEFF",
"4%	c #928B8B",
"5%	c #330000",
"6%	c #A90000",
"7%	c #D80001",
"8%	c #BD0000",
"9%	c #C60000",
"0%	c #6C0000",
"a%	c #654651",
"b%	c #B1B5B7",
"c%	c #5C5859",
"d%	c #A5A2A4",
"e%	c #BDBCBD",
"f%	c #161112",
"g%	c #201D1E",
"h%	c #F8FAF9",
"i%	c #F5F5F6",
"j%	c #F3F3F3",
"k%	c #E8E7E8",
"l%	c #3C3839",
"m%	c #CDCCCD",
"n%	c #FCFDFD",
"o%	c #878484",
"p%	c #5A5657",
"q%	c #8B8585",
"r%	c #B0B4B6",
"s%	c #4D4B4C",
"t%	c #A29FA0",
"u%	c #0A0708",
"v%	c #1A1818",
"w%	c #F4F3F4",
"x%	c #F1F1F2",
"y%	c #2F2C2C",
"z%	c #CBCACA",
"A%	c #FAFAFB",
"B%	c #888586",
"C%	c #585556",
"D%	c #F3F3F4",
"E%	c #908B8B",
"F%	c #310000",
"G%	c #6E0000",
"H%	c #634550",
"I%	c #5A5C5F",
"J%	c #F0F1F1",
"K%	c #434141",
"L%	c #AAA8A9",
"M%	c #050404",
"N%	c #171515",
"O%	c #DBDBDB",
"P%	c #F2F2F3",
"Q%	c #B4B2B2",
"R%	c #F0F0F0",
"S%	c #F4F4F4",
"T%	c #E0E0E1",
"U%	c #252223",
"V%	c #C8C7C7",
"W%	c #F8F9F9",
"X%	c #FEFFFF",
"Y%	c #8A8888",
"Z%	c #5F5D5D",
"`%	c #2F2021",
" &	c #430202",
".&	c #A20000",
"+&	c #790001",
"@&	c #642D37",
"#&	c #3C3537",
"$&	c #7B7B7B",
"%&	c #EEEFEF",
"&&	c #6C6A6B",
"*&	c #1D1B1B",
"=&	c #C3C2C3",
"-&	c #FCFCFD",
";&	c #C0BFC0",
">&	c #343131",
",&	c #413F3F",
"'&	c #E9E9EA",
")&	c #F2F3F3",
"!&	c #F0F0F1",
"~&	c #EEEEEF",
"{&	c #F1F2F2",
"]&	c #4B4949",
"^&	c #262424",
"/&	c #F3F4F4",
"(&	c #FBFCFD",
"_&	c #8B8788",
":&	c #615F5F",
"<&	c #F0EFF0",
"[&	c #B0A3A6",
"}&	c #3E1010",
"|&	c #790000",
"1&	c #DB0001",
"2&	c #910000",
"3&	c #4D151E",
"4&	c #A59FA1",
"5&	c #DAD9DA",
"6&	c #E1E0E1",
"7&	c #F9F9FA",
"8&	c #FBFBFC",
"9&	c #C6C5C5",
"0&	c #DFDFE0",
"a&	c #EFEFF0",
"b&	c #B3B1B2",
"c&	c #F5F6F6",
"d&	c #F4F5F5",
"e&	c #8B8989",
"f&	c #605D5E",
"g&	c #E2E0E1",
"h&	c #773E4A",
"i&	c #670202",
"j&	c #7A4647",
"k&	c #EDEDEE",
"l&	c #EFF0F0",
"m&	c #EDEEEF",
"n&	c #E2E2E3",
"o&	c #C0BFBF",
"p&	c #B7B6B6",
"q&	c #CECFCF",
"r&	c #EDEEEE",
"s&	c #ECEDEE",
"t&	c #EBEBEC",
"u&	c #EFF0F1",
"v&	c #BEBCBE",
"w&	c #E0DFE0",
"x&	c #F8F8F9",
"y&	c #8D8B8B",
"z&	c #6B6869",
"A&	c #A3838A",
"B&	c #700808",
"C&	c #990000",
"D&	c #B88081",
"E&	c #ECECED",
"F&	c #E0E1E1",
"G&	c #EEEFF0",
"H&	c #EBEBEB",
"I&	c #B3B1B1",
"J&	c #EAEAEB",
"K&	c #ECEDED",
"L&	c #BCBBBC",
"M&	c #DFDEDF",
"N&	c #EBECEC",
"O&	c #8C8A8A",
"P&	c #6C696A",
"Q&	c #E6E2E4",
"R&	c #926F77",
"S&	c #670808",
"T&	c #AB0000",
"U&	c #A76F6F",
"V&	c #EBEBEA",
"W&	c #BFBEBF",
"X&	c #EAEBEB",
"Y&	c #E9EAEA",
"Z&	c #EAE9EA",
"`&	c #B2B0B1",
" *	c #E8E8E9",
".*	c #BBBABB",
"+*	c #F4F5F6",
"@*	c #584D50",
"#*	c #997880",
"$*	c #6D1B1B",
"%*	c #CF0000",
"&*	c #CC0000",
"**	c #AE1313",
"=*	c #AE7070",
"-*	c #E3DDDD",
";*	c #E8E9E9",
">*	c #DDDEDE",
",*	c #BFBEBE",
"'*	c #E8E9EA",
")*	c #CDCDCD",
"!*	c #E7E8E8",
"~*	c #B2B0B0",
"{*	c #E6E6E7",
"]*	c #B9B9B9",
"^*	c #8D8A8B",
"/*	c #0C0506",
"(*	c #5C3E45",
"_*	c #6F1D1D",
":*	c #AB0202",
"<*	c #B40000",
"[*	c #5F0000",
"}*	c #5D0202",
"|*	c #A80000",
"1*	c #E80004",
"2*	c #BA7C7D",
"3*	c #DEDADA",
"4*	c #DCDBDC",
"5*	c #BEBDBD",
"6*	c #E6E7E8",
"7*	c #B5B4B4",
"8*	c #CCCCCC",
"9*	c #E6E7E7",
"0*	c #E5E5E6",
"a*	c #B0AEAF",
"b*	c #E4E5E5",
"c*	c #B7B6B7",
"d*	c #D9DADA",
"e*	c #8A8889",
"f*	c #230007",
"g*	c #4F0404",
"h*	c #B70000",
"i*	c #400000",
"j*	c #4C4949",
"k*	c #390000",
"l*	c #A67C7C",
"m*	c #E8E8E8",
"n*	c #CACACA",
"o*	c #E4E4E5",
"p*	c #E3E3E4",
"q*	c #AEADAE",
"r*	c #B5B5B6",
"s*	c #D7D7D8",
"t*	c #EDEFEF",
"u*	c #8B8889",
"v*	c #150000",
"w*	c #332728",
"x*	c #9A9C9C",
"y*	c #DADADB",
"z*	c #9B9697",
"A*	c #FF000D",
"B*	c #4B0000",
"C*	c #8B8488",
"D*	c #DDDDDF",
"E*	c #A8A7A7",
"F*	c #BFBDBE",
"G*	c #DEDEDE",
"H*	c #DADADA",
"I*	c #D9D8DA",
"J*	c #A2A0A1",
"K*	c #DCDCDD",
"L*	c #ACAAAB",
"M*	c #CAC9CA",
"N*	c #DCDBDB",
"O*	c #868484",
"P*	c #180007",
"Q*	c #300000",
"R*	c #260303",
"S*	c #0F0303",
"T*	c #212222",
"U*	c #3A3939",
"V*	c #3B3A3B",
"W*	c #261E1E",
"X*	c #2D0000",
"Y*	c #930000",
"Z*	c #E20002",
"`*	c #700000",
" =	c #302022",
".=	c #2B2A2A",
"+=	c #313031",
"@=	c #3A393A",
"#=	c #393838",
"$=	c #3B3B3A",
"%=	c #2F2E2E",
"&=	c #343333",
"*=	c #3C3B3B",
"==	c #3B3A3A",
"-=	c #3E3D3D",
";=	c #232223",
">=	c #030303",
",=	c #140B0E",
"'=	c #140009",
")=	c #370101",
"!=	c #130606",
"~=	c #161414",
"{=	c #171717",
"]=	c #1E1F1F",
"^=	c #1F1E1E",
"/=	c #1C1212",
"(=	c #390303",
"_=	c #830000",
":=	c #620000",
"<=	c #340B15",
"[=	c #282526",
"}=	c #161616",
"|=	c #121212",
"1=	c #0F0F0F",
"2=	c #1C0F13",
"3=	c #120002",
"4=	c #320000",
"5=	c #860000",
"6=	c #070505",
"7=	c #100E0E",
"8=	c #140808",
"9=	c #340101",
"0=	c #590000",
"a=	c #480000",
"b=	c #29030B",
"c=	c #191415",
"d=	c #090909",
"e=	c #060606",
"f=	c #130004",
"g=	c #0A0000",
"h=	c #040000",
"i=	c #140000",
"j=	c #13070A",
"k=	c #080100",
"                                                                                                ",
"        . + @ @ @ @ @ @ @ @ @ # $ $ $ $ $ $ $ $ $ $ $ $ $ $ $ $ $ $ $ $ $ $ $ $ $ $ $ % & .     ",
"      * = - ; ; ; ; ; ; ; ; % > , , , ' ' ) ! ) ~ { { { { { { { { { { { { { { { { ] ^ > / ( *   ",
"      _ : < [ [ < , , < [ , , > # / } | 1 2 3 4 3 | 5 6 5 5 6 7 8 8 9 9 0 0 a b c ] ^ > d e _   ",
"      f @ g g g g h i i j k l m n _ o p q r s t u v w u x y y y z z A A B C D E F G ^ H I J I   ",
"      < K g L g M h i I i N l O P + Q R S S S v T T v u U U V W X Y U Z U `  ...+.G ^ H @.e @.  ",
"      > . g #.g $.h i n i %.&.O *.=.-.;.>.,.S ,.'.,.).,.).S S S S ).v u !.'.~.{.].G ^ H f ^./.  ",
"      (._.g :.g <.h i [.}.|.1.2.3.4.5.6.7.S ).).r S ,.).).S 8.S ).S S 9.0.a.b.c.d.e.^ (., : [   ",
"      > ( f._ $ g._ f.=.=.- h.> i._.j.k.l.m.n.m.n.o.p.q.r.s.t.u.v.w.x.y.z.A.B.C.D.e.^ (.< : >   ",
"      (.E.f , , , , , , , , /.< F.G.H.I.J.K.L.M.N.O.P.Q.R.S.T.U.V.W.X.Y.Z.`. +.+++] ^ (.< E.(.  ",
"      ( E., < < < < < < < < < < @+#+$+%+&+*+=+-+;+>+,+'+)+!+~+{+]+^+/+(+_+:+<+[+e.{ ^ }+^ E.(   ",
"      = m < [ [ [ [ [ [ [ [ [ < |+1+2+3+4+5+6+7+8+9+0+a+b+c+d+e+@ g.$ ; f+g+h+i+j+^ ^ }+> m =   ",
"      ^.k+[ > > > > > > > > ^ l+f.m+n+o+p+q+r+s+/ d t+u+v+w+x+y+z+H }+l+A+B+C+D+E+F+: : H k+^.  ",
"      G+k+> H H H H H H H H H e }+H+I+J+K+L+M+N+(.H O+P+Q+R+S+T+U+(.> ^ V+W+X+Y+Z+`+H }+(.k+G+  ",
"      k+ @H (.(.(.(.(.(.(.(.(.e d - .@+@@@#@$@% f f % $@#@@@+@.@- I f # $ %@@@&@*@$ / H l+ @k+  ",
"       @=@(.}+}+}+}+}+}+}+}+}+=@-@J }+}+}+}+(.;@>@>@;@(.}+}+}+}+J ,@>@'@H }+}+}+}+H )@!@l+=@ @  ",
"      O 2.l+( ( ( ( ( ( ( ( l+k+O (.^ ^ ^ ^ ^ ^.2.2.^.^ ^ ^ ^ ^ (.O 2.=@[ ^ ^ ^ ^ [ 2. @= 2.O   ",
"      ;@2.}+l+l+l+l+l+l+l+l+l+k+~@=@ @ @ @ @ @2.O O 2. @ @ @ @ @=@O O O  @ @ @ @ @ @O =@( 2.;@  ",
"      {@,@,@)@,@]@^@)@,@'@^@/@(@_@_@_@_@_@_@:@_@_@_@_@<@_@_@_@(@[@_@_@_@_@_@_@_@_@}@_@_@-@|@;@  ",
"      1@2@3@4@5@6@7@8@9@0@a@b@c@d@e@f@g@h@i@j@k@e@l@m@n@o@p@q@r@s@t@d@e@u@l@d@v@w@x@y@z@A@B@)@  ",
"      >@C@D@E@E@F@_@G@D@H@I@J@D@D@D@K@D@D@L@M@C@N@O@P@_@Q@D@R@S@T@U@D@D@R@V@D@W@X@_@Y@D@D@Z@`@  ",
"      )@ #E@D@.#+#_@@###$#%#&#D@D@D@*#D@=#-#;#>#,#'#)#_@!#D@~#{#]#^#D@/#(#_#D@:#<#_@[#D@D@}#|#  ",
"      1#2#3#4#5#6#7#G@##8#9#0#D@D@D@a#b#c#d#e#f#g#'#h#i#j#D@k#l#m#n#D@/#o#_#D@i p#q#r#D@D@s#}@  ",
"      t#u#v#w#x#y#z#A###B#C#D#D@D@D@E#F#G#H#I#J#K#L#M#N#O#D@P#Q#R#&.D@/#o#_#D@S#T#U#V#D@D@W#X#  ",
"      }@Y#Z#`# $.$+$@$#$$$%$&$D@D@b#*$G#`#=$-$;$>$,$'$)$a#D@@#!$~${$D@/#]$^$D@/$($_$:$D@D@<$[$  ",
"      }$|$1$2$3$4$5$6$7$8$9$0$D@b#F#a$`#-$3$3$b$;$c$d$e$f$D@g$h$i$j$D@/#k$l$D@m$n$o$g$D@D@p$_@  ",
"      q$r$s$t$t$t$t$.$u$v$w$x$y$z$A$`#3$3$3$3$t$3$B$C$D$E$##F$G$H$I$J$O@K$l$V@L$M#M$}.D@D@p$_@  ",
"      N$O$B$s$3$3$3$4$5$P$Q$R$S$T$`#-$3$3$3$3$2$U$V$W$X$Y$D@Z$`$ %l .%+%@%#%$%%%&%*%@#D@D@<$_@  ",
"      q#=%-%;%s$3$3$3$4$5$>%,%'%`#-$3$3$3$3$2$)%!%~%{%]%^%D@/%(%_%1.:%_#<%[%}%|%1%2%[#3%D@<$_@  ",
"      _@T#4%5%6%=$t$3$t$4$7%6%8%-$3$3$3$3$t$9%0%a%b%c%_@d%D@e%f%g%g h%i%<%j%^$k%l%_@m%n%D@o%_@  ",
"      _@p%D@q%5%6%=$t$3$t$3$ $3$3$3$3$3$t$9%0%a%r%/$s%_@t%D@f$u%v%h@'#w%f$x%i%n#y%_@z%A%D@B%_@  ",
"      _@C%D@D%E%F%6%=$t$3$3$3$3$3$3$3$t$9%G%H%I%J%%%K%_@8#D@L%M%N%O%#%P%Q%R%S%T%U%_@V%W%X%Y%_@  ",
"      _@Z%D@x%/$`% &.&.$3$3$3$3$3$3$ $)%+&@&#&$&J%%&&&*&=&-&;&>&,&'&)&!&Q%~&{&l ]&^&&./&(&_&_@  ",
"      _@:&D@<&S#[&}&|&1&4$3$3$3$3$3$.$2&3&4&5&6&/$/$P%V#7&%&8&9&0&#%a&S#b&W@R%S%4@c&d&%%A%e&_@  ",
"      _@f&D@~&g&h&i&1$-$3$3$3$3$3$t$3$H#j&k&[#5@l&m&n&o&!&%&P%p&q&L$r&s&b&t&%%u&v&w&l&~&x&y&_@  ",
"      _@z&X%n#A&B&`#-$3$3$3$3$3$3$3$t$ $C&D&Y@g$r&E&F&o&G&E&!&p&[#u&E&H&I&J&K&~&L&M&~&N&#%O&_@  ",
"      _@P&Q&R&S&T&=$3$3$3$3$3$3$t$3$3$t$ $C&U&G@N&V&g W&W@X&~&k$v@r&Y&Z&`& *J&E&.*h@t&J&+*}#_@  ",
"      _@@*#*$*T&=$3$3$3$3$2$%*&*=$3$3$3$3$s$**=*-*;*>*,*|%'*K&k$)*K&;*!*~*{*'&X&]*O%J& *)&^*_@  ",
"      /*(*_*:*=$3$3$3$3$2$<*[*}*|*1*3$3$3$3$s$**2*3*4*5*'&6*X&7*8*J&9*0*a*b*j$ *c*d* *{*!&e*_@  ",
"      f*g*|*=$3$3$3$3$2$h*i*j*3.k*T&.$t$3$3$t$ $B$l*5&q@{*b*m*@%n*m*o*p*q*n&0*9*r*s*{$o*t*u*_@  ",
"      v*[*5$3$3$3$3$2$1$F%w*x*y*z*5%;%1*A*3$3$t$8%B*C*q*g@y*D*E*F*G*H*I*J*9@O%K*L*M*N*H*p*O*_@  ",
"      P*Q*B$1*3$3$2$T&R*S*T*- U*V*W*X*Y*Z*A*t$8%`* =t+.=% ; - .=+=- @=% l+#=$=- %=&=*===-=;=>=  ",
"      ,='=5%;%1*b$;%)=!=~={@O {=]=^=/=(=_=)%|*:=<=[=l+( J e : G+m  @2.O ~@{@}=!@|=/@1=)@-@|#    ",
"        2=3=4=x#5=X*}$6=-@)@>@,@1=1@7=8=9=0=a=b=c={=}=^@!@|=|=1@1@1='@>@)@,@-@d=d=`@e=}@>=_@    ",
"            f=g=_@h=                      i=,=                                                  ",
"              j=k=                                                                              ",
"                                                                                                ",
"                                                                                                "};
