/* XPM */
static char * maprename_xpm[] = {
"48 48 432 2",
"  	c None",
". 	c #3F3F3F",
"+ 	c #323232",
"@ 	c #313131",
"# 	c #303030",
"$ 	c #2F2F2F",
"% 	c #2E2E2E",
"& 	c #363636",
"* 	c #353535",
"= 	c #353152",
"- 	c #373071",
"; 	c #383073",
"> 	c #382F72",
", 	c #372F72",
"' 	c #372E72",
") 	c #362E71",
"! 	c #362D71",
"~ 	c #352D71",
"{ 	c #342C70",
"] 	c #332B70",
"^ 	c #332B6F",
"/ 	c #322B6F",
"( 	c #322B70",
"_ 	c #322C70",
": 	c #322C6F",
"< 	c #332C6F",
"[ 	c #332D70",
"} 	c #312B6C",
"| 	c #2E2A48",
"1 	c #393939",
"2 	c #3A3469",
"3 	c #4834B3",
"4 	c #4F38C7",
"5 	c #4F3AC7",
"6 	c #4E3CC7",
"7 	c #4D3CC6",
"8 	c #4D3AC3",
"9 	c #4D3CC5",
"0 	c #4751D1",
"a 	c #494ED0",
"b 	c #4E3EC8",
"c 	c #4E3FC9",
"d 	c #4F41CA",
"e 	c #4F42CA",
"f 	c #4F43CC",
"g 	c #5144CD",
"h 	c #5044CB",
"i 	c #4F43CB",
"j 	c #4E43CB",
"k 	c #4E42CB",
"l 	c #4F44CC",
"m 	c #5046CD",
"n 	c #5147CD",
"o 	c #5248CD",
"p 	c #5047CC",
"q 	c #5047CD",
"r 	c #5148CD",
"s 	c #5149CD",
"t 	c #514ACD",
"u 	c #524BCE",
"v 	c #524CCE",
"w 	c #524DCE",
"x 	c #524DCD",
"y 	c #443DB1",
"z 	c #2F2A59",
"A 	c #3D3D3D",
"B 	c #3C3C3C",
"C 	c #3E376D",
"D 	c #4F39C2",
"E 	c #5742DD",
"F 	c #5645DE",
"G 	c #5647DE",
"H 	c #5648DE",
"I 	c #5749DF",
"J 	c #2F9AF7",
"K 	c #2F9BF7",
"L 	c #594DE0",
"M 	c #594CE0",
"N 	c #584CE0",
"O 	c #584BE0",
"P 	c #584DE0",
"Q 	c #594EE1",
"R 	c #5B4FE1",
"S 	c #5B50E2",
"T 	c #5A4FE2",
"U 	c #594EE2",
"V 	c #5A4EE2",
"W 	c #5C51E2",
"X 	c #5B51E4",
"Y 	c #5B52E5",
"Z 	c #5C53E5",
"` 	c #5C54E5",
" .	c #5C55E6",
"..	c #5D56E6",
"+.	c #5D57E6",
"@.	c #5C57E5",
"#.	c #4B43C0",
"$.	c #302B5A",
"%.	c #404040",
"&.	c #423B70",
"*.	c #513DC4",
"=.	c #5645DF",
"-.	c #5646E0",
";.	c #5647E0",
">.	c #5648E1",
",.	c #5648E0",
"'.	c #584AE0",
").	c #2E9AF7",
"!.	c #2E9AF8",
"~.	c #584CE2",
"{.	c #594CE2",
"].	c #584BE1",
"^.	c #594DE2",
"/.	c #594EE3",
"(.	c #594DE3",
"_.	c #5A4EE4",
":.	c #5A4FE4",
"<.	c #5A50E4",
"[.	c #5B50E5",
"}.	c #5B51E5",
"|.	c #5A50E3",
"1.	c #493FBF",
"2.	c #2F2A5A",
"3.	c #444444",
"4.	c #453E72",
"5.	c #523DC4",
"6.	c #3588F1",
"7.	c #2F96F5",
"8.	c #2E97F6",
"9.	c #348BF2",
"0.	c #495FE6",
"a.	c #5747E0",
"b.	c #2E99F7",
"c.	c #3290F4",
"d.	c #4B5EE6",
"e.	c #5748E1",
"f.	c #5250E2",
"g.	c #3D7CEE",
"h.	c #3292F5",
"i.	c #2E98F6",
"j.	c #3788F2",
"k.	c #584BE2",
"l.	c #584AE2",
"m.	c #574AE1",
"n.	c #5749E1",
"o.	c #584BE3",
"p.	c #584AE1",
"q.	c #483BBE",
"r.	c #484848",
"s.	c #474747",
"t.	c #484275",
"u.	c #5640C5",
"v.	c #5448DE",
"w.	c #5544DD",
"x.	c #4C58E3",
"y.	c #3093F5",
"z.	c #4F51E2",
"A.	c #338BF3",
"B.	c #3983F0",
"C.	c #4567E9",
"D.	c #5449E1",
"E.	c #544EE2",
"F.	c #5747E1",
"G.	c #5647E1",
"H.	c #574AE2",
"I.	c #5644E1",
"J.	c #5544DF",
"K.	c #4638BD",
"L.	c #4B4B4B",
"M.	c #4C4578",
"N.	c #5A43C6",
"O.	c #456CE8",
"P.	c #3192F4",
"Q.	c #2F96F6",
"R.	c #5546DE",
"S.	c #5646DF",
"T.	c #3095F5",
"U.	c #5447E0",
"V.	c #5645E0",
"W.	c #5544E0",
"X.	c #5543E0",
"Y.	c #6251E2",
"Z.	c #6252E2",
"`.	c #5542DF",
" +	c #543FDF",
".+	c #533EDF",
"++	c #533FDF",
"@+	c #533EDD",
"#+	c #4434BC",
"$+	c #4F4F4F",
"%+	c #4E4E4E",
"&+	c #4F497A",
"*+	c #5C46C7",
"=+	c #3194F4",
"-+	c #5051E1",
";+	c #4F52E2",
">+	c #3785F0",
",+	c #3883F0",
"'+	c #4565E7",
")+	c #5447DF",
"!+	c #534CE0",
"~+	c #5746E0",
"{+	c #6F62E4",
"]+	c #B4AEEE",
"^+	c #D9D6EF",
"/+	c #D3D0F1",
"(+	c #B3ABF1",
"_+	c #5440DE",
":+	c #533CDD",
"<+	c #5139DD",
"[+	c #5138DD",
"}+	c #5138DC",
"|+	c #4330BB",
"1+	c #2F2959",
"2+	c #535353",
"3+	c #525252",
"4+	c #534D7D",
"5+	c #604AC6",
"6+	c #4B6CE7",
"7+	c #3491F3",
"8+	c #3098F5",
"9+	c #3095F4",
"0+	c #348DF1",
"a+	c #5B46DB",
"b+	c #3788F0",
"c+	c #3094F4",
"d+	c #3093F4",
"e+	c #3983EF",
"f+	c #5150DE",
"g+	c #5643DB",
"h+	c #524BDC",
"i+	c #3C7AEB",
"j+	c #3290F2",
"k+	c #2E95F4",
"l+	c #3488EF",
"m+	c #5640D9",
"n+	c #5541DA",
"o+	c #B8B0EF",
"p+	c #C1C0C2",
"q+	c #808081",
"r+	c #919192",
"s+	c #C6C6C7",
"t+	c #E9E8F2",
"u+	c #C7BFF3",
"v+	c #7F6DE3",
"w+	c #5C44DB",
"x+	c #4E33D8",
"y+	c #4D31D8",
"z+	c #4D32D8",
"A+	c #4D32D7",
"B+	c #412CB7",
"C+	c #565656",
"D+	c #555555",
"E+	c #56507D",
"F+	c #5C4DB0",
"G+	c #5E4CBA",
"H+	c #5C4AB9",
"I+	c #5B48B9",
"J+	c #5947B9",
"K+	c #5846B8",
"L+	c #5946B8",
"M+	c #5744B7",
"N+	c #5544B6",
"O+	c #5343B6",
"P+	c #5242B5",
"Q+	c #513FB4",
"R+	c #503DB2",
"S+	c #4F3CB3",
"T+	c #4E3BB4",
"U+	c #4C39B2",
"V+	c #4C39B1",
"W+	c #6657BD",
"X+	c #DAD8E5",
"Y+	c #6D6D6E",
"Z+	c #050505",
"`+	c #060606",
" @	c #222222",
".@	c #656565",
"+@	c #AEAEAE",
"@@	c #E2E1E4",
"#@	c #C1BAE4",
"$@	c #5C4BB9",
"%@	c #3D29AB",
"&@	c #3C28AB",
"*@	c #37269C",
"=@	c #2E2957",
"-@	c #5A5A5A",
";@	c #595959",
">@	c #585858",
",@	c #585666",
"'@	c #585470",
")@	c #575370",
"!@	c #55526E",
"~@	c #54506D",
"{@	c #524F6C",
"]@	c #524E6B",
"^@	c #504C6A",
"/@	c #4F4B69",
"(@	c #4E4B68",
"_@	c #4C4967",
":@	c #4B4866",
"<@	c #4A4664",
"[@	c #494563",
"}@	c #474362",
"|@	c #464261",
"1@	c #454060",
"2@	c #433F5E",
"3@	c #413D5D",
"4@	c #4E4B67",
"5@	c #DCDBDF",
"6@	c #797979",
"7@	c #070707",
"8@	c #373737",
"9@	c #151515",
"0@	c #515151",
"a@	c #BABABA",
"b@	c #D6D5DB",
"c@	c #504C69",
"d@	c #2E2A4D",
"e@	c #2E2A4C",
"f@	c #2E2C3B",
"g@	c #5D5D5D",
"h@	c #5C5C5C",
"i@	c #616359",
"j@	c #666A55",
"k@	c #5A5A59",
"l@	c #5B5957",
"m@	c #6A5F4D",
"n@	c #5C5852",
"o@	c #5E6250",
"p@	c #5B5E4F",
"q@	c #515150",
"r@	c #584F4D",
"s@	c #604E4A",
"t@	c #4E4D4C",
"u@	c #4A4A4A",
"v@	c #464646",
"w@	c #424242",
"x@	c #414141",
"y@	c #C1C1C1",
"z@	c #A9A9A9",
"A@	c #141414",
"B@	c #D5D5D5",
"C@	c #B3B3B3",
"D@	c #606060",
"E@	c #3E3E3E",
"F@	c #B7B7B7",
"G@	c #D6D6D6",
"H@	c #616161",
"I@	c #5F5F5F",
"J@	c #8B9C4A",
"K@	c #AAC73A",
"L@	c #6E7553",
"M@	c #7D6947",
"N@	c #CE8A18",
"O@	c #8D6E3A",
"P@	c #5D5F54",
"Q@	c #9CB43C",
"R@	c #94AA3E",
"S@	c #575951",
"T@	c #934F42",
"U@	c #C34D36",
"V@	c #6A4D48",
"W@	c #4C4C4C",
"X@	c #454545",
"Y@	c #434343",
"Z@	c #878787",
"`@	c #D7D7D7",
" #	c #E8E8E8",
".#	c #F6F6F6",
"+#	c #B0B0B0",
"@#	c #000000",
"##	c #B5B5B5",
"$#	c #D9D9D9",
"%#	c #646464",
"&#	c #626262",
"*#	c #7E8853",
"=#	c #91A348",
"-#	c #676B59",
";#	c #716551",
">#	c #A87B30",
",#	c #7B6847",
"'#	c #5B5C57",
")#	c #859646",
"!#	c #7F8D46",
"~#	c #565753",
"{#	c #7D5148",
"]#	c #9C4F3F",
"^#	c #5E4F4C",
"/#	c #494949",
"(#	c #5E5E5E",
"_#	c #E3E3E3",
":#	c #717171",
"<#	c #181818",
"[#	c #C2C2C2",
"}#	c #010101",
"|#	c #030303",
"1#	c #B6B6B6",
"2#	c #676767",
"3#	c #636462",
"4#	c #65665F",
"5#	c #635F59",
"6#	c #5C5B5A",
"7#	c #585955",
"8#	c #555353",
"9#	c #575150",
"0#	c #505050",
"a#	c #4D4D4D",
"b#	c #ACACAC",
"c#	c #101010",
"d#	c #383838",
"e#	c #B9B9B9",
"f#	c #7E7E7E",
"g#	c #DCDCDC",
"h#	c #040404",
"i#	c #B8B8B8",
"j#	c #FFFFFF",
"k#	c #D0D0D0",
"l#	c #D2D2D2",
"m#	c #FAFAFA",
"n#	c #C9C9C9",
"o#	c #020202",
"p#	c #545454",
"q#	c #CFCFCF",
"r#	c #E7E7E7",
"s#	c #CBCBCB",
"t#	c #CECECE",
"u#	c #BEBEBE",
"v#	c #C7C7C7",
"w#	c #0F0F0F",
"x#	c #BBBBBB",
"y#	c #D1D1D1",
"                                                                                                ",
"                                                                                                ",
"                                                                                                ",
"                                                                                                ",
"                                                                                                ",
"                                                                                                ",
"                                                                                                ",
"                                                                                                ",
"                                                                                                ",
"                                                                                                ",
"                                                                                                ",
"                                                                                                ",
"                                                                                                ",
"                                                                                                ",
"  . . . . . . . . . . . . . . . . . . . . . . . . . . . . . . . . . . . . . . . . . . . . . .   ",
"  . + + + + @ @ @ # # $ $ $ % % % % % % % % % % % % % % % % % % % % % % % % % % % % % % % % .   ",
"  . & & * * = - ; > , ' ) ! ~ ~ { { ] ^ / ( ] / / / / / ( _ _ : : : < < [ [ [ [ } | % % % % .   ",
"  . 1 1 1 1 2 3 4 5 6 7 8 9 0 a b b c d e f g h i j k l m n o p q r s t u v w x y z % % % % .   ",
"  . A A A B C D E F G H H I J K L M N O O P Q R S T U U V T W X X Y Z `  ...+.@.#.$.% % % % .   ",
"  . %.%.%.%.&.*.=.-.;.>.,.'.).!.~.{.].].~.~.^.U V T /.^.{.~.^.(.(.(._.:.<.[.}.|.1.2.% % % % .   ",
"  . 3.3.3.3.4.5.6.7.8.9.0.a.b.b.b.c.d.e.f.g.h.i.j.k.k.k.l.m.n.k.k.k.l.l.l.k.o.p.q.z % % % % .   ",
"  . r.r.s.s.t.u.v.w.x.b.y.;.b.b.z.b.A.-.B.b.C.D.E.e.F.F.F.G.G.n.H.l.G.I.I.I.I.J.K.z % % % % .   ",
"  . L.L.L.L.M.N.O.P.Q.b.b.;.b.b.R.b.7.S.T.b.U.a.e.a.V.W.X.Y.Z.V.V.V.`. +.+++++@+#+z % % % % .   ",
"  . $+$+%+%+&+*+=+b.-+b.b.;.b.b.;+b.>+-.,+b.'+)+!+~+S.{+]+^+/+(+{+X._+:+<+[+[+}+|+1+% % % % .   ",
"  . 2+2+3+3+4+5+6+7+8+9+0+a+b+c+d+e+f+g+h+i+j+k+l+m+n+o+p+q+r+s+t+u+v+w+x+y+z+A+B+1+% % % % .   ",
"  . C+C+C+D+E+F+G+H+I+J+K+L+K+M+N+O+P+Q+Q+R+S+T+U+V+W+X+Y+Z+`+ @.@+@@@#@$@%@&@&@*@=@% % % % .   ",
"  . -@-@;@>@,@'@)@!@!@~@{@]@^@/@(@_@:@<@[@}@|@1@2@3@4@5@6@Z+7@8@ @9@0@a@b@c@d@e@e@f@% % % % .   ",
"  . g@g@h@h@i@j@k@l@m@n@D+o@p@q@r@s@t@L.u@r.v@v@3.w@x@y@z@A@$+B@C@D@7@E@F@G@$+% % % % % % % .   ",
"  . H@D@I@I@J@K@L@M@N@O@P@Q@R@S@T@U@V@W@L.u@s.v@X@Y@x@Z@`@8@W@ #.#+#A@@#. ##$#%+% % % % % % .   ",
"  . %#%#&#&#*#=#-#;#>#,#'#)#!#~#{#]#^#%+W@L./#s.v@3.w@(#_#:#<#F@[#0@}#@#|#& 1#G@%+% % % % % .   ",
"  . 2#2#.@%#3#4#D@(#5#6#;@'#7#D+8#9#0#$+a#L.u@r.v@X@Y@w@y@b#c#d#@ |#@#@#@#|#%.e#G@%+% % % % .   ",
"  . . . . . . . . . . . . . . . . . . . . . . . . . . . f#g#g@h#@#@#@#@#@#@#@#A i#g#g@. . . .   ",
"                                                          j#k#-@|#@#@#@#@#@#@#@#A C@j#          ",
"                                                            j#l#3+|#@#@#@#@#@#@#|#& i#m#        ",
"                                                              j#n#0#}#@#@#@#@#@#@#o#p# #        ",
"                                                                j#q#p#h#@#@#@#@#@#o#$+r#        ",
"                                                                  j#s#2+o#@#@#@#@#A i#j#        ",
"                                                                    j#t#0#|#@#}#x@u#j#          ",
"                                                                      j#v#0#w#x@x#j#            ",
"                                                                        j#g#F@y#j#              ",
"                                                                            j#                  ",
"                                                                                                ",
"                                                                                                ",
"                                                                                                ",
"                                                                                                ",
"                                                                                                ",
"                                                                                                ",
"                                                                                                "};
